<?xml version="1.0" encoding="iso-8859-1"?>
<!-- Generator: Adobe Illustrator 19.0.0, SVG Export Plug-In . SVG Version: 6.00 Build 0)  -->
<svg version="1.1" id="Capa_1" xmlns="http://www.w3.org/2000/svg" xmlns:xlink="http://www.w3.org/1999/xlink" x="0px" y="0px"
	 viewBox="0 0 512 512" style="enable-background:new 0 0 512 512;" xml:space="preserve">
<path style="fill:#FD4B2D;" d="M512,512H0V0h512V512z"/>
<path style="fill:#E8130F;" d="M512,512H256V0h256V512z"/>
<path style="fill:#FF6849;" d="M482,482H30V30h452V482z"/>
<path style="fill:#FD4B2D;" d="M482,482H256V30h226V482z"/>
<path style="fill:#FFFFFF;" d="M117.082,417.572c-5.125,0-9.641-0.956-13.52-2.368l-0.659-0.257
	c-8.717-3.596-15.107-11.251-17.088-20.475l-0.106-0.546c-2.792-15.835,2.909-40.043,45.93-65.441
	c16.487-9.733,36.446-18.353,58.553-25.407c5.603-11.644,10.817-24.034,15.511-36.929c4.693-12.895,8.663-25.738,11.855-38.259
	c-12.401-19.614-22.149-39.047-28.522-57.1c-16.511-46.77-5.597-68.998,6.615-79.43c7.577-6.827,18.472-8.755,27.938-4.93
	c15.045,5.623,32.909,22.775,33.391,72.38c0.186,19.145-2.329,40.74-7.273,63.412c7.282,10.674,15.405,21.385,24.226,31.897
	c8.821,10.512,17.958,20.372,27.206,29.397c23.187-0.933,44.89,0.341,63.712,3.849c48.909,9.114,62.636,29.778,65.507,45.588
	c1.968,9.968-1.702,20.053-9.617,26.425c-12.362,10.267-36.16,17.274-79.486-7.183c-16.673-9.411-34.117-22.386-51.28-38.005
	c-12.888,0.969-26.22,2.649-39.737,5.032c-13.514,2.383-26.621,5.366-39.062,8.862c-10.786,20.547-22.741,38.705-35.189,53.251
	C151.841,409.548,131.921,417.572,117.082,417.572z M115.14,387.359c6.793,1.186,20.254-4.733,38.051-25.53
	c4.597-5.371,9.129-11.321,13.555-17.772c-7.122,3.238-13.769,6.668-19.856,10.262C123.32,368.234,115.153,380.461,115.14,387.359z
	 M337.184,314.004c6.365,4.549,12.659,8.59,18.815,12.065c23.835,13.455,38.507,14.414,44.489,10.976
	c-2.373-6.478-14.229-15.175-41.136-20.189C352.403,315.561,344.984,314.611,337.184,314.004z M239.691,259.425
	c-1.801,5.647-3.736,11.317-5.799,16.985c-2.063,5.667-4.225,11.255-6.475,16.739c5.793-1.264,11.667-2.423,17.609-3.47
	c5.939-1.047,11.86-1.968,17.733-2.761c-3.992-4.385-7.932-8.892-11.81-13.515C247.073,268.781,243.315,264.115,239.691,259.425z
	 M214.24,115.083c-4.424,5.293-6.027,19.909,3.084,45.719c2.353,6.666,5.24,13.566,8.614,20.625
	c0.757-7.787,1.109-15.258,1.041-22.327C226.713,131.731,220.208,118.544,214.24,115.083z"/>
<g>
	<path style="fill:#E5E5E5;" d="M256,181.969c0.716-8.031,1.05-15.779,0.978-23.16c-0.061-6.274-0.402-12.024-0.978-17.302V181.969z
		"/>
	<path style="fill:#E5E5E5;" d="M430.355,332.952c-2.871-15.811-16.598-36.474-65.507-45.588
		c-18.822-3.508-40.525-4.782-63.712-3.849c-9.248-9.026-18.385-18.885-27.206-29.397c-6.36-7.579-12.35-15.262-17.931-22.96v48.141
		c2.237,2.574,4.487,5.121,6.76,7.617c-2.245,0.303-4.502,0.642-6.76,0.983v30.351c11.541-1.871,22.921-3.229,33.972-4.06
		c17.163,15.619,34.607,28.593,51.28,38.005c43.327,24.457,67.125,17.451,79.486,7.183
		C428.653,353.006,432.324,342.92,430.355,332.952z M356,326.069c-6.157-3.475-12.45-7.516-18.815-12.065
		c7.8,0.607,15.219,1.557,22.168,2.852c26.907,5.014,38.763,13.711,41.136,20.189C394.507,340.483,379.834,339.524,356,326.069z"/>
</g>
<g>
</g>
<g>
</g>
<g>
</g>
<g>
</g>
<g>
</g>
<g>
</g>
<g>
</g>
<g>
</g>
<g>
</g>
<g>
</g>
<g>
</g>
<g>
</g>
<g>
</g>
<g>
</g>
<g>
</g>
</svg>
