<?xml version="1.0" encoding="iso-8859-1"?>
<!-- Generator: Adobe Illustrator 19.0.0, SVG Export Plug-In . SVG Version: 6.00 Build 0)  -->
<svg version="1.1" id="Capa_1" xmlns="http://www.w3.org/2000/svg" xmlns:xlink="http://www.w3.org/1999/xlink" x="0px" y="0px"
	 viewBox="0 0 512 512" style="enable-background:new 0 0 512 512;" xml:space="preserve">
<path style="fill:#F8D9FF;" d="M512,512H0V0h512V512z"/>
<path style="fill:#F3C0FF;" d="M512,512H256V0h256V512z"/>
<path style="fill:#723B7F;" d="M482,482H30V30h452V482z"/>
<path style="fill:#5C3066;" d="M482,482H256V30h226V482z"/>
<path style="fill:#F8D9FF;" d="M172.9,181.6h29.28l64.8,170.4H232.9l-15.84-42.48h-59.52L141.94,352h-34.08L172.9,181.6z
	 M211.06,286.24l-23.52-66.96l-24.48,66.96H211.06z"/>
<g>
	<path style="fill:#F3C0FF;" d="M337.541,354.4c-40.166,0-66.24-29.775-66.24-64.56c0-31.215,21.699-65.76,66.48-65.76
		c31.969,0,65.52,21.17,65.52,64.56c0,2.081-0.401,9.521-0.72,10.8h-97.2c0.48,4.961,5.786,31.44,33.36,31.44
		c17.842,0,27.679-11.917,29.76-17.04l27.6,7.68C391.458,331.12,375.75,354.4,337.541,354.4z M370.181,278.56
		c-1.931-20.06-16.431-31.2-32.88-31.2c-16.926,0-30.926,12.765-32.4,31.2H370.181z"/>
	<polygon style="fill:#F3C0FF;" points="256,323.128 256,352 266.979,352 	"/>
</g>
<g>
</g>
<g>
</g>
<g>
</g>
<g>
</g>
<g>
</g>
<g>
</g>
<g>
</g>
<g>
</g>
<g>
</g>
<g>
</g>
<g>
</g>
<g>
</g>
<g>
</g>
<g>
</g>
<g>
</g>
</svg>
