<?xml version="1.0" encoding="iso-8859-1"?>
<!-- Generator: Adobe Illustrator 19.0.0, SVG Export Plug-In . SVG Version: 6.00 Build 0)  -->
<svg version="1.1" id="Capa_1" xmlns="http://www.w3.org/2000/svg" xmlns:xlink="http://www.w3.org/1999/xlink" x="0px" y="0px"
	 viewBox="0 0 512 512" style="enable-background:new 0 0 512 512;" xml:space="preserve">
<path style="fill:#FD4B2D;" d="M512,512H0V0h512V512z"/>
<path style="fill:#E8130F;" d="M512,512H256V0h256V512z"/>
<path style="fill:#FF6849;" d="M482,482H30V30h452V482z"/>
<path style="fill:#FD4B2D;" d="M482,482H256V30h226V482z"/>
<path style="fill:#FFFFFF;" d="M398.703,295.7l-34.43-28.89c-16.421-13.779-24.243-35.271-20.521-56.381l7.805-44.262
	c6.713-38.073-18.709-74.378-56.781-81.092c-38.073-6.713-74.379,18.708-81.092,56.781l-7.804,44.262
	c-3.722,21.11-18.424,38.631-38.567,45.962l-42.234,15.372c-36.328,13.222-55.06,53.391-41.837,89.72s53.392,55.06,89.72,41.837
	l42.234-15.372c20.143-7.332,42.668-3.36,59.089,10.419l34.429,28.89c29.615,24.85,73.768,20.987,98.618-8.628
	C432.181,364.703,428.318,320.55,398.703,295.7z M301.175,279.135c-3.836,21.755-24.583,36.282-46.338,32.446
	c-21.756-3.836-36.282-24.583-32.446-46.338s24.583-36.283,46.338-32.446C290.484,236.632,305.011,257.379,301.175,279.135z"/>
<path style="fill:#E5E5E5;" d="M398.703,295.7l-34.43-28.89c-16.421-13.779-24.243-35.271-20.521-56.381l7.805-44.262
	c6.713-38.073-18.709-74.378-56.781-81.092c-13.573-2.393-26.913-0.685-38.775,4.207v143.327c4.12-0.601,8.403-0.575,12.728,0.188
	c21.756,3.836,36.283,24.583,32.447,46.338c-3.768,21.367-23.848,35.748-45.175,32.621v51.802
	c6.568,2.358,12.77,5.873,18.283,10.499l34.429,28.89c29.615,24.85,73.768,20.987,98.618-8.628
	C432.181,364.703,428.318,320.55,398.703,295.7z"/>
<g>
</g>
<g>
</g>
<g>
</g>
<g>
</g>
<g>
</g>
<g>
</g>
<g>
</g>
<g>
</g>
<g>
</g>
<g>
</g>
<g>
</g>
<g>
</g>
<g>
</g>
<g>
</g>
<g>
</g>
</svg>
