<?xml version="1.0" encoding="iso-8859-1"?>
<!-- Generator: Adobe Illustrator 19.0.0, SVG Export Plug-In . SVG Version: 6.00 Build 0)  -->
<svg version="1.1" id="Capa_1" xmlns="http://www.w3.org/2000/svg" xmlns:xlink="http://www.w3.org/1999/xlink" x="0px" y="0px"
	 viewBox="0 0 512 512" style="enable-background:new 0 0 512 512;" xml:space="preserve">
<path style="fill:#FF6849;" d="M512,512H0V0h512V512z"/>
<path style="fill:#FD4B2D;" d="M512,512H256V0h256V512z"/>
<path style="fill:#A10101;" d="M482,482H30V30h452V482z"/>
<path style="fill:#7F0101;" d="M482,482H256V30h226V482z"/>
<path style="fill:#FF6849;" d="M170.622,181.6h29.28l64.8,170.4h-34.08l-15.84-42.48h-59.52l-15.6,42.48h-34.08L170.622,181.6z
	 M208.782,286.24l-23.52-66.96l-24.48,66.96H208.782z"/>
<g>
	<path style="fill:#FD4B2D;" d="M397.181,352h-32.16v-70.56c0-20.107-7.854-29.04-19.92-29.04c-21.768,0-31.522,22.32-32.64,26.16
		V352h-32.16V226.24h29.04v23.28c4.639-7.999,18.492-25.44,49.92-25.44c30.572,0,37.92,24.253,37.92,49.44L397.181,352L397.181,352z
		"/>
	<polygon style="fill:#FD4B2D;" points="256,329.118 256,352 264.702,352 	"/>
</g>
<g>
</g>
<g>
</g>
<g>
</g>
<g>
</g>
<g>
</g>
<g>
</g>
<g>
</g>
<g>
</g>
<g>
</g>
<g>
</g>
<g>
</g>
<g>
</g>
<g>
</g>
<g>
</g>
<g>
</g>
</svg>
