<?xml version="1.0" encoding="iso-8859-1"?>
<!-- Generator: Adobe Illustrator 19.0.0, SVG Export Plug-In . SVG Version: 6.00 Build 0)  -->
<svg version="1.1" id="Capa_1" xmlns="http://www.w3.org/2000/svg" xmlns:xlink="http://www.w3.org/1999/xlink" x="0px" y="0px"
	 viewBox="0 0 512 512" style="enable-background:new 0 0 512 512;" xml:space="preserve">
<path style="fill:#FD4B2D;" d="M512,512H0V0h512V512z"/>
<path style="fill:#E8130F;" d="M512,512H256V0h256V512z"/>
<path style="fill:#FF6849;" d="M482,482H30V30h452V482z"/>
<path style="fill:#FD4B2D;" d="M482,482H256V30h226V482z"/>
<g>
	<path style="fill:#FFFFFF;" d="M230.863,212.742c-0.006-19.515-6.088-38.543-17.402-54.444
		c-20.813-29.25-61.396-36.089-90.646-15.277c-29.25,20.813-36.089,61.396-15.276,90.646c11.314,15.9,27.298,27.883,45.733,34.285
		l75.985,26.385l1.63-1.16L230.863,212.742z M172.095,212.278c-9,6.404-21.487,4.299-27.891-4.7s-4.299-21.487,4.7-27.891
		s21.487-4.3,27.891,4.7C183.2,193.387,181.095,205.875,172.095,212.278z"/>
	<path style="fill:#FFFFFF;" d="M336.599,323.207l-15.142-78.997l-1.819-0.832l-69.647,40.238
		c-16.897,9.763-30.336,24.544-38.449,42.292c-14.924,32.649-0.556,71.215,32.093,86.14c32.649,14.924,71.215,0.556,86.14-32.093
		C337.888,362.207,340.273,342.373,336.599,323.207z M288.848,361.246c-4.592,10.046-16.459,14.467-26.505,9.875
		c-10.046-4.592-14.467-16.458-9.875-26.504c4.592-10.046,16.459-14.467,26.505-9.875S293.44,351.2,288.848,361.246z"/>
	<path style="fill:#FFFFFF;" d="M416.209,172.902c-3.399-35.737-35.126-61.952-70.863-58.552
		c-19.427,1.848-37.796,9.699-52.558,22.464l-60.842,52.612l0.189,1.991l69.671,40.198c16.903,9.752,36.423,14,55.85,12.151
		C393.393,240.366,419.608,208.639,416.209,172.902z M353.395,198.967c-10.996,1.046-20.758-7.02-21.804-18.016
		s7.02-20.758,18.016-21.804s20.758,7.02,21.804,18.016C372.457,188.159,364.391,197.921,353.395,198.967z"/>
</g>
<g>
	<path style="fill:#E5E5E5;" d="M321.457,244.209l-1.819-0.832L256,280.144v59.193c5.708-6.156,14.921-8.277,22.973-4.596
		c10.046,4.592,14.467,16.458,9.875,26.504s-16.459,14.467-26.505,9.875c-2.474-1.131-4.602-2.706-6.343-4.583v49.73
		c29.487,6.856,60.701-7.713,73.774-36.313c8.113-17.748,10.498-37.582,6.825-56.748L321.457,244.209z"/>
	<path style="fill:#E5E5E5;" d="M416.209,172.902c-3.399-35.737-35.126-61.952-70.863-58.552
		c-19.427,1.848-37.796,9.699-52.558,22.464L256,168.625v36.561l45.806,26.428c16.903,9.752,36.423,14,55.85,12.151
		C393.393,240.366,419.608,208.639,416.209,172.902z M353.395,198.967c-10.996,1.046-20.758-7.02-21.804-18.016
		s7.02-20.758,18.016-21.804s20.758,7.02,21.804,18.016C372.457,188.159,364.391,197.921,353.395,198.967z"/>
</g>
<g>
</g>
<g>
</g>
<g>
</g>
<g>
</g>
<g>
</g>
<g>
</g>
<g>
</g>
<g>
</g>
<g>
</g>
<g>
</g>
<g>
</g>
<g>
</g>
<g>
</g>
<g>
</g>
<g>
</g>
</svg>
