<?xml version="1.0" encoding="iso-8859-1"?>
<!-- Generator: Adobe Illustrator 19.0.0, SVG Export Plug-In . SVG Version: 6.00 Build 0)  -->
<svg version="1.1" id="Capa_1" xmlns="http://www.w3.org/2000/svg" xmlns:xlink="http://www.w3.org/1999/xlink" x="0px" y="0px"
	 viewBox="0 0 512 512" style="enable-background:new 0 0 512 512;" xml:space="preserve">
<path style="fill:#FFEA84;" d="M512,512H0V0h512V512z"/>
<path style="fill:#FFDC40;" d="M512,512H256V0h256V512z"/>
<path style="fill:#994C0F;" d="M482,482H30V30h452V482z"/>
<path style="fill:#713708;" d="M482,482H256V30h226V482z"/>
<path style="fill:#FFDC40;" d="M385.059,254.08c-28.29,0-39.36,14.64-42.72,21.84V352h-32.16V226.24h29.52v26.88
	c2.239-4.32,16.32-31.37,45.36-28.32L385.059,254.08L385.059,254.08z"/>
<path style="fill:#FFEA84;" d="M287.38,308.08c0,18.17-11.755,43.92-54.96,43.92H150.1V181.6h91.2c17.95,0,38.88,16.275,38.88,43.44
	c0,15.96-8.055,32.585-24.48,39.6C275.5,270,287.38,286.625,287.38,308.08z M183.22,209.92v42.96h44.16
	c12.245,0,20.16-9.63,20.16-21.6c0-12.78-8.04-21.36-18.72-21.36H183.22z M254.02,301.84c0-13.559-10.52-22.8-19.92-22.8h-50.88
	v44.88h49.2C243.25,323.92,254.02,314.875,254.02,301.84z"/>
<g>
	<path style="fill:#FFDC40;" d="M256,264.496c16.217-7.091,24.18-23.597,24.18-39.456c0-19.84-11.166-33.86-24.18-39.985V264.496z"
		/>
	<path style="fill:#FFDC40;" d="M256,264.728v84.059c24.103-7.459,31.38-26.422,31.38-40.707
		C287.38,286.735,275.618,270.175,256,264.728z"/>
</g>
<g>
</g>
<g>
</g>
<g>
</g>
<g>
</g>
<g>
</g>
<g>
</g>
<g>
</g>
<g>
</g>
<g>
</g>
<g>
</g>
<g>
</g>
<g>
</g>
<g>
</g>
<g>
</g>
<g>
</g>
</svg>
