<?xml version="1.0" encoding="iso-8859-1"?>
<!-- Generator: Adobe Illustrator 19.0.0, SVG Export Plug-In . SVG Version: 6.00 Build 0)  -->
<svg version="1.1" id="Capa_1" xmlns="http://www.w3.org/2000/svg" xmlns:xlink="http://www.w3.org/1999/xlink" x="0px" y="0px"
	 viewBox="0 0 512 512" style="enable-background:new 0 0 512 512;" xml:space="preserve">
<path style="fill:#FF5F96;" d="M512,512H0V0h512V512z"/>
<path style="fill:#FF468C;" d="M512,512H256V0h256V512z"/>
<path style="fill:#7F1D32;" d="M482,482H30V30h452V482z"/>
<path style="fill:#66192D;" d="M482,482H256V30h226V482z"/>
<path style="fill:#FF5F96;" d="M256,401.231c-34.571,0-69.141-13.159-95.459-39.478L54.787,256l105.754-105.753
	c52.637-52.637,138.282-52.637,190.919,0L457.213,256L351.459,361.753C325.141,388.072,290.571,401.231,256,401.231z M97.213,256
	l84.54,84.541c40.939,40.939,107.554,40.939,148.493,0L414.787,256l-84.54-84.541c-40.939-40.939-107.554-40.939-148.493,0
	L97.213,256z"/>
<path style="fill:#FF468C;" d="M273.32,226l25.174-43.603C285.991,175.162,271.486,171,256,171c-4.695,0-9.295,0.397-13.782,1.129
	L273.32,226z"/>
<g>
	<path style="fill:#D72878;" d="M273.32,286l25.174,43.603c16.872-9.763,30.076-25.146,37.042-43.603H273.32z"/>
	<path style="fill:#D72878;" d="M290.641,256H341c0-20.449-7.225-39.208-19.256-53.872L290.641,256z"/>
</g>
<g>
	<path style="fill:#FF468C;" d="M238.68,286l-25.174,43.603C226.009,336.838,240.514,341,256,341c4.695,0,9.295-0.397,13.782-1.129
		L238.68,286z"/>
	<path style="fill:#FF468C;" d="M171,256c0,20.449,7.225,39.208,19.256,53.872L221.359,256H171z"/>
	<path style="fill:#FF468C;" d="M176.463,226h62.216l-25.174-43.603C196.633,192.159,183.429,207.542,176.463,226z"/>
	<path style="fill:#FF468C;" d="M351.459,150.247c-26.318-26.318-60.889-39.478-95.459-39.478v29.986
		c26.888,0,53.777,10.235,74.247,30.705l84.54,84.54l-84.54,84.541c-20.47,20.47-47.358,30.705-74.247,30.705v29.986
		c34.571,0,69.141-13.159,95.459-39.478L457.213,256L351.459,150.247z"/>
</g>
<g>
	<path style="fill:#D72878;" d="M256,341c4.695,0,9.295-0.397,13.782-1.129L256,316V341z"/>
	<path style="fill:#D72878;" d="M256,171v25l17.32,30l25.174-43.603C285.991,175.162,271.486,171,256,171z"/>
</g>
<g>
</g>
<g>
</g>
<g>
</g>
<g>
</g>
<g>
</g>
<g>
</g>
<g>
</g>
<g>
</g>
<g>
</g>
<g>
</g>
<g>
</g>
<g>
</g>
<g>
</g>
<g>
</g>
<g>
</g>
</svg>
