<?xml version="1.0" encoding="iso-8859-1"?>
<!-- Generator: Adobe Illustrator 19.0.0, SVG Export Plug-In . SVG Version: 6.00 Build 0)  -->
<svg version="1.1" id="Capa_1" xmlns="http://www.w3.org/2000/svg" xmlns:xlink="http://www.w3.org/1999/xlink" x="0px" y="0px"
	 viewBox="0 0 512 512" style="enable-background:new 0 0 512 512;" xml:space="preserve">
<path style="fill:#F8D9FF;" d="M512,512H0V0h512V512z"/>
<path style="fill:#F3C0FF;" d="M512,512H256V0h256V512z"/>
<path style="fill:#723B7F;" d="M482,482H30V30h452V482z"/>
<path style="fill:#5C3066;" d="M482,482H256V30h226V482z"/>
<path style="fill:#F8D9FF;" d="M110.143,265.6c0-50.433,38.857-84.96,84-84.96c41.524,0,60.638,26.16,66.24,37.2l-25.439,17.52
	c-2.243-4.8-12.443-25.44-41.761-25.44c-23.683,0-49.44,19.413-49.44,56.64c0,31.273,20.758,57.6,49.92,57.6
	c29.338,0,40.08-21.278,42-25.92l27.121,15.6c-2.723,6.401-21.45,39.6-70.08,39.6C146.5,353.44,110.143,311.167,110.143,265.6z"/>
<g>
	<path style="fill:#F3C0FF;" d="M398.859,352h-32.16v-70.56c0-19.44-7.533-29.04-21.119-29.04c-19.747,0-30.322,22.32-31.44,26.16
		V352h-32.16V176.8h32.159v72.72c4.64-8.16,17.86-25.44,45.12-25.44c21.074,0,39.6,10.253,39.6,49.44V352z"/>
	<path style="fill:#F3C0FF;" d="M256,309.938v14.806c3.836-4.915,5.992-9.044,6.783-10.905L256,309.938z"/>
	<path style="fill:#F3C0FF;" d="M256,220.858l4.383-3.018c-1.006-1.982-2.455-4.455-4.383-7.172V220.858z"/>
</g>
<g>
</g>
<g>
</g>
<g>
</g>
<g>
</g>
<g>
</g>
<g>
</g>
<g>
</g>
<g>
</g>
<g>
</g>
<g>
</g>
<g>
</g>
<g>
</g>
<g>
</g>
<g>
</g>
<g>
</g>
</svg>
