<?xml version="1.0" encoding="iso-8859-1"?>
<!-- Generator: Adobe Illustrator 19.0.0, SVG Export Plug-In . SVG Version: 6.00 Build 0)  -->
<svg version="1.1" id="Capa_1" xmlns="http://www.w3.org/2000/svg" xmlns:xlink="http://www.w3.org/1999/xlink" x="0px" y="0px"
	 viewBox="0 0 512 512" style="enable-background:new 0 0 512 512;" xml:space="preserve">
<path style="fill:#F8D9FF;" d="M512,512H0V0h512V512z"/>
<path style="fill:#F3C0FF;" d="M512,512H256V0h256V512z"/>
<path style="fill:#723B7F;" d="M482,482H30V30h452V482z"/>
<path style="fill:#5C3066;" d="M482,482H256V30h226V482z"/>
<g>
	<polygon style="fill:#F8D9FF;" points="406,325.282 226,429.205 256,446.525 333.308,401.891 436,342.603 	"/>
	<polygon style="fill:#F8D9FF;" points="386,313.735 356,296.415 176,400.337 206,417.658 	"/>
	<polygon style="fill:#F8D9FF;" points="166,290.641 141.993,304.501 76,342.603 106,359.923 196,307.961 	"/>
	<polygon style="fill:#F8D9FF;" points="216,319.508 126,371.47 156,388.79 246,336.829 	"/>
</g>
<g>
	<polygon style="fill:#F3C0FF;" points="256,388.79 386,313.735 356,296.415 256,354.149 	"/>
	<polygon style="fill:#F3C0FF;" points="406,325.282 256,411.884 256,446.525 333.308,401.891 436,342.603 	"/>
</g>
<polygon style="fill:#EDA2FF;" points="256,359.923 76,256 173.5,199.708 256,250 338.5,199.708 436,256 "/>
<polygon style="fill:#DD86F2;" points="338.5,199.708 256,250 256,359.923 436,256 "/>
<path style="fill:#F8D9FF;" d="M256,65.475L76,169.397L256,273.32l180-103.923L256,65.475z M241,154.397h-79.019L241,108.776
	V154.397z M241,184.397v45.622l-79.019-45.622H241z M271,184.397h79.019L271,230.02V184.397z M271,154.397v-45.622l79.019,45.622
	H271z"/>
<path style="fill:#F3C0FF;" d="M256,65.475V273.32l180-103.923L256,65.475z M271,108.776l79.019,45.622H271V108.776z M271,184.397
	h79.019L271,230.02V184.397z"/>
<g>
</g>
<g>
</g>
<g>
</g>
<g>
</g>
<g>
</g>
<g>
</g>
<g>
</g>
<g>
</g>
<g>
</g>
<g>
</g>
<g>
</g>
<g>
</g>
<g>
</g>
<g>
</g>
<g>
</g>
</svg>
