<?xml version="1.0" encoding="iso-8859-1"?>
<!-- Generator: Adobe Illustrator 19.0.0, SVG Export Plug-In . SVG Version: 6.00 Build 0)  -->
<svg version="1.1" id="Capa_1" xmlns="http://www.w3.org/2000/svg" xmlns:xlink="http://www.w3.org/1999/xlink" x="0px" y="0px"
	 viewBox="0 0 512 512" style="enable-background:new 0 0 512 512;" xml:space="preserve">
<path style="fill:#FD4B2D;" d="M512,512H0V0h512V512z"/>
<path style="fill:#E8130F;" d="M512,512H256V0h256V512z"/>
<path style="fill:#FF6849;" d="M482,482H30V30h452V482z"/>
<path style="fill:#FD4B2D;" d="M482,482H256V30h226V482z"/>
<path style="fill:#FFFFFF;" d="M357.569,302.568c-31.193,31.192-81.946,31.191-113.138,0l-58.125-58.126l-21.213,21.213
	l51.233,51.234c-21.343,14.113-50.437,11.782-69.217-6.998c-21.444-21.445-21.444-56.337,0-77.782
	c21.445-21.444,56.337-21.444,77.782,0l70.422,70.422l21.213-21.213l-70.422-70.423c-3.591-3.591-7.439-6.769-11.465-9.582
	c2.86-4.236,6.123-8.213,9.792-11.882c31.192-31.193,81.945-31.192,113.138,0C388.76,220.624,388.76,271.376,357.569,302.568z
	 M441,246c0,77.196-62.804,140-140,140H186c-63.411,0-115-51.589-115-115s51.589-115,115-115c2.512,0,5.039,0.083,7.564,0.25
	C220.04,124.636,259.578,106,301,106C378.196,106,441,168.804,441,246z M378.782,168.218c-42.889-42.889-112.674-42.889-155.564,0
	c-6.216,6.217-11.597,13.079-16.118,20.479c-28.129-7.161-59.232,0.228-81.204,22.199c-33.141,33.142-33.141,87.066,0,120.208
	c16.571,16.57,38.337,24.855,60.104,24.855c18.94,0,37.877-6.28,53.393-18.826c18.533,12.538,40.068,18.815,61.607,18.815
	c28.168,0,56.337-10.722,77.782-32.167C421.67,280.893,421.67,211.107,378.782,168.218z"/>
<g>
	<path style="fill:#E5E5E5;" d="M357.569,302.568c31.191-31.192,31.191-81.945,0-113.137
		c-27.583-27.582-70.452-30.755-101.575-9.556v40.91l60.532,60.533l-21.213,21.213l-39.319-39.319v48.913
		C287.117,333.323,329.986,330.151,357.569,302.568z"/>
	<path style="fill:#E5E5E5;" d="M301,106c-15.458,0-30.653,2.598-45.006,7.495v32.137c40.443-18.08,89.644-10.557,122.788,22.586
		c42.889,42.889,42.889,112.674,0,155.563c-21.444,21.444-49.613,32.167-77.782,32.167c-15.369,0-30.73-3.214-45.006-9.6V386H301
		c77.196,0,140-62.804,140-140S378.196,106,301,106z"/>
</g>
<g>
</g>
<g>
</g>
<g>
</g>
<g>
</g>
<g>
</g>
<g>
</g>
<g>
</g>
<g>
</g>
<g>
</g>
<g>
</g>
<g>
</g>
<g>
</g>
<g>
</g>
<g>
</g>
<g>
</g>
</svg>
