<?xml version="1.0" encoding="iso-8859-1"?>
<!-- Generator: Adobe Illustrator 19.0.0, SVG Export Plug-In . SVG Version: 6.00 Build 0)  -->
<svg version="1.1" id="Capa_1" xmlns="http://www.w3.org/2000/svg" xmlns:xlink="http://www.w3.org/1999/xlink" x="0px" y="0px"
	 viewBox="0 0 512 512" style="enable-background:new 0 0 512 512;" xml:space="preserve">
<path style="fill:#99FFEB;" d="M512,512H0V0h512V512z"/>
<path style="fill:#4DFFE5;" d="M512,512H256V0h256V512z"/>
<path style="fill:#354E72;" d="M482,482H30V30h452V482z"/>
<path style="fill:#2C4060;" d="M482,482H256V30h226V482z"/>
<path style="fill:#99FFEB;" d="M402.459,352h-32.16v-70.56c0-20.107-7.854-29.04-19.92-29.04c-21.768,0-31.522,22.32-32.64,26.16
	V352h-32.16V226.24h29.04v23.28c4.639-7.999,18.492-25.44,49.92-25.44c30.572,0,37.92,24.253,37.92,49.44L402.459,352L402.459,352z"
	/>
<path style="fill:#CCFFF5;" d="M116.862,352V181.6h61.921c51.217,0,84,34.733,84,84.96c0,50.107-30.45,85.44-84,85.44H116.862z
	 M229.422,266.56c0-25.56-12.755-55.92-50.639-55.92h-28.801v112.32h28.801C210.333,322.96,229.422,299.333,229.422,266.56z"/>
<path style="fill:#99FFEB;" d="M256,229.964v74.183c4.462-11.126,6.783-23.792,6.783-37.586
	C262.783,253.125,260.417,240.813,256,229.964z"/>
<g>
</g>
<g>
</g>
<g>
</g>
<g>
</g>
<g>
</g>
<g>
</g>
<g>
</g>
<g>
</g>
<g>
</g>
<g>
</g>
<g>
</g>
<g>
</g>
<g>
</g>
<g>
</g>
<g>
</g>
</svg>
