<?xml version="1.0" encoding="iso-8859-1"?>
<!-- Generator: Adobe Illustrator 19.0.0, SVG Export Plug-In . SVG Version: 6.00 Build 0)  -->
<svg version="1.1" id="Capa_1" xmlns="http://www.w3.org/2000/svg" xmlns:xlink="http://www.w3.org/1999/xlink" x="0px" y="0px"
	 viewBox="0 0 512 512" style="enable-background:new 0 0 512 512;" xml:space="preserve">
<path style="fill:#57565C;" d="M512,512H0V0h512V512z"/>
<path style="fill:#3E3D42;" d="M512,512H256V0h256V512z"/>
<path style="fill:#E5E5E5;" d="M482,482H30V30h452V482z"/>
<path style="fill:#CCCCCC;" d="M482,482H256V30h226V482z"/>
<g>
	<polygon style="fill:#57565C;" points="279.246,241 257.74,203.75 244.894,181.5 313.599,181.5 347.951,241 	"/>
	<polygon style="fill:#57565C;" points="218.914,196.5 231.76,218.75 253.266,256 231.76,293.25 218.914,315.5 184.561,256 	"/>
	<polygon style="fill:#57565C;" points="257.74,308.25 279.246,271 347.951,271 313.599,330.5 244.894,330.5 	"/>
	<polygon style="fill:#57565C;" points="279.246,92 365.271,92 408.284,166.5 373.932,226 330.919,151.5 244.894,151.5 	"/>
	<polygon style="fill:#57565C;" points="124.228,330.5 81.215,256 124.228,181.5 192.933,181.5 149.92,256 192.933,330.5 	"/>
	<polygon style="fill:#57565C;" points="365.271,420 279.246,420 244.894,360.5 330.919,360.5 373.932,286 408.284,345.5 	"/>
</g>
<g>
	<polygon style="fill:#3E3D42;" points="256,151.5 330.919,151.5 373.932,226 408.284,166.5 365.271,92 279.246,92 256,132.264 	"/>
	<polygon style="fill:#3E3D42;" points="347.951,271 279.246,271 257.74,308.25 256,311.264 256,330.5 313.599,330.5 	"/>
	<polygon style="fill:#3E3D42;" points="330.919,360.5 256,360.5 256,379.736 279.246,420 365.271,420 408.284,345.5 373.932,286 	
		"/>
	<polygon style="fill:#3E3D42;" points="313.599,181.5 256,181.5 256,200.736 257.74,203.75 279.246,241 347.951,241 	"/>
</g>
<g>
</g>
<g>
</g>
<g>
</g>
<g>
</g>
<g>
</g>
<g>
</g>
<g>
</g>
<g>
</g>
<g>
</g>
<g>
</g>
<g>
</g>
<g>
</g>
<g>
</g>
<g>
</g>
<g>
</g>
</svg>
