<?xml version="1.0" encoding="iso-8859-1"?>
<!-- Generator: Adobe Illustrator 19.0.0, SVG Export Plug-In . SVG Version: 6.00 Build 0)  -->
<svg version="1.1" id="Capa_1" xmlns="http://www.w3.org/2000/svg" xmlns:xlink="http://www.w3.org/1999/xlink" x="0px" y="0px"
	 viewBox="0 0 512 512" style="enable-background:new 0 0 512 512;" xml:space="preserve">
<path style="fill:#F8D9FF;" d="M512,512H0V0h512V512z"/>
<path style="fill:#F3C0FF;" d="M512,512H256V0h256V512z"/>
<path style="fill:#723B7F;" d="M482,482H30V30h452V482z"/>
<path style="fill:#5C3066;" d="M482,482H256V30h226V482z"/>
<g>
	<polygon style="fill:#F8D9FF;" points="173.579,303.848 120.01,314.99 131.152,261.421 284.574,108 327,150.426 	"/>
	<path style="fill:#F8D9FF;" d="M286.287,341.592c0,1.351,0.22,4.689,0.243,4.994c-6.925,2.845-18.468,8.341-45.861,8.341
		c-34.917,0-139.669,0-139.669,0v30c0,0,104.752,0,139.669,0c33.268,0,47.706-6.774,55.667-9.953
		c2.404,2.839,10.664,11.943,29.403,11.943c17.136,0,34.773-14.689,35.013-14.871c0.357,0.791,4.914,11.256,17.248,11.256
		c19.313,0,48.519-21.607,50.331-22.89l-7.994-12.97c-22.003,10.85-34.885,12.867-36.381,13.042
		c1.794-8.276,10.311-22.007,10.357-22.054l0,0l-24.914-16.453c0,0-17.358,22.024-37.621,32.995
		c14.388-11.596,23.038-23.784,23.038-40.595c0-16.709-13.067-26.37-24.786-26.37C300.25,288.006,286.287,320.833,286.287,341.592z
		 M324.733,314.479C324.721,314.443,324.724,314.45,324.733,314.479L324.733,314.479z"/>
</g>
<g>
	<path style="fill:#F3C0FF;" d="M420.336,347.441c-22.003,10.85-34.885,12.867-36.381,13.042
		c1.794-8.275,10.311-22.007,10.357-22.054l0,0l-24.914-16.453c0,0-17.358,22.024-37.621,32.995
		c14.389-11.596,23.038-23.784,23.038-40.595c0-16.709-13.067-26.37-24.786-26.37c-29.781,0-43.743,32.827-43.743,53.585
		c0,1.351,0.22,4.689,0.243,4.994c-5.462,2.245-13.806,6.136-30.53,7.68v30.125c22.63-1.659,33.723-6.776,40.336-9.417
		c2.404,2.839,10.664,11.943,29.403,11.943c17.136,0,34.773-14.689,35.013-14.871c0.357,0.791,4.915,11.256,17.248,11.256
		c19.313,0,48.519-21.607,50.331-22.891L420.336,347.441z"/>
	<polygon style="fill:#F3C0FF;" points="256,221.426 327,150.426 284.574,108 256,136.574 	"/>
</g>
<g>
</g>
<g>
</g>
<g>
</g>
<g>
</g>
<g>
</g>
<g>
</g>
<g>
</g>
<g>
</g>
<g>
</g>
<g>
</g>
<g>
</g>
<g>
</g>
<g>
</g>
<g>
</g>
<g>
</g>
</svg>
