<?xml version="1.0" encoding="iso-8859-1"?>
<!-- Generator: Adobe Illustrator 19.0.0, SVG Export Plug-In . SVG Version: 6.00 Build 0)  -->
<svg version="1.1" id="Capa_1" xmlns="http://www.w3.org/2000/svg" xmlns:xlink="http://www.w3.org/1999/xlink" x="0px" y="0px"
	 viewBox="0 0 512 512" style="enable-background:new 0 0 512 512;" xml:space="preserve">
<path style="fill:#E5E5E5;" d="M512,512H0V0h512V512z"/>
<path style="fill:#CCCCCC;" d="M512,512H256V0h256V512z"/>
<path style="fill:#57565C;" d="M482,482H30V30h452V482z"/>
<path style="fill:#3E3D42;" d="M482,482H256V30h226V482z"/>
<path style="fill:#E5E5E5;" d="M135.803,352V181.6h114.48v29.04h-81.36v43.92h67.68v26.88h-67.68V352H135.803z"/>
<path style="fill:#CCCCCC;" d="M341.961,354.4c-27.461,0-39.12-16.717-43.439-24.24V352h-28.08V176.8h32.159v71.52
	c4.478-7.68,17.399-24.24,43.2-24.24c33.949,0,54.96,31.92,54.96,65.52C400.761,324.5,375.75,354.4,341.961,354.4z M333.08,327.04
	c18.42,0,34.801-15.04,34.801-37.2c0-23.04-16.381-38.4-32.88-38.4c-19.501,0-29.362,17.603-32.4,24.48v30
	C303.719,309.123,313,327.04,333.08,327.04z"/>
<g>
</g>
<g>
</g>
<g>
</g>
<g>
</g>
<g>
</g>
<g>
</g>
<g>
</g>
<g>
</g>
<g>
</g>
<g>
</g>
<g>
</g>
<g>
</g>
<g>
</g>
<g>
</g>
<g>
</g>
</svg>
