<?xml version="1.0" encoding="iso-8859-1"?>
<!-- Generator: Adobe Illustrator 19.0.0, SVG Export Plug-In . SVG Version: 6.00 Build 0)  -->
<svg version="1.1" id="Capa_1" xmlns="http://www.w3.org/2000/svg" xmlns:xlink="http://www.w3.org/1999/xlink" x="0px" y="0px"
	 viewBox="0 0 512 512" style="enable-background:new 0 0 512 512;" xml:space="preserve">
<path style="fill:#FEC478;" d="M512,512H0V0h512V512z"/>
<path style="fill:#FEA832;" d="M512,512H256V0h256V512z"/>
<path style="fill:#994C0F;" d="M482,482H30V30h452V482z"/>
<path style="fill:#713708;" d="M482,482H256V30h226V482z"/>
<path style="fill:#FEC478;" d="M151.902,352V181.6h114.48v29.04h-81.36v43.92h67.68v26.88h-67.68V352H151.902z"/>
<g>
	<path style="fill:#FEA832;" d="M323.74,354.4c-29.029,0-49.68-13.2-56.88-19.44l12-20.16c7.68,5.441,25.351,16.56,44.16,16.56
		c12.191,0,20.64-5.11,20.64-13.92c0-10.815-17.843-14.317-27.6-17.04c-8.16-2.239-44.88-7.4-44.88-35.04
		c0-26.61,23.156-41.52,49.44-41.52c27.591,0,42.319,11.201,49.2,17.28l-12.96,19.44c-6.401-4.8-20.649-13.92-36.48-13.92
		c-11.669,0-19.2,4.985-19.2,14.16c0,11.45,20.078,14.722,24.72,15.84c8.64,2.242,48.72,8.36,48.72,37.92
		C374.62,349.5,339.418,354.4,323.74,354.4z"/>
	<rect x="256" y="181.6" style="fill:#FEA832;" width="10.382" height="29.04"/>
</g>
<g>
</g>
<g>
</g>
<g>
</g>
<g>
</g>
<g>
</g>
<g>
</g>
<g>
</g>
<g>
</g>
<g>
</g>
<g>
</g>
<g>
</g>
<g>
</g>
<g>
</g>
<g>
</g>
<g>
</g>
</svg>
