<?xml version="1.0" encoding="iso-8859-1"?>
<!-- Generator: Adobe Illustrator 19.0.0, SVG Export Plug-In . SVG Version: 6.00 Build 0)  -->
<svg version="1.1" id="Capa_1" xmlns="http://www.w3.org/2000/svg" xmlns:xlink="http://www.w3.org/1999/xlink" x="0px" y="0px"
	 viewBox="0 0 512 512" style="enable-background:new 0 0 512 512;" xml:space="preserve">
<path style="fill:#57565C;" d="M512,512H0V0h512V512z"/>
<path style="fill:#3E3D42;" d="M512,512H256V0h256V512z"/>
<path style="fill:#E5E5E5;" d="M482,482H30V30h452V482z"/>
<path style="fill:#CCCCCC;" d="M482,482H256V30h226V482z"/>
<path style="fill:#57565C;" d="M421,396H91V196.698L147.687,106h216.627L421,196.698V396z"/>
<g>
	<polygon style="fill:#3E3D42;" points="364.313,106 256,106 256,396 421,396 421,196.698 	"/>
	<path style="fill:#3E3D42;" d="M91,196.698L147.687,106h216.627L421,196.698H91z"/>
</g>
<polygon style="fill:#242326;" points="256,196.698 421,196.698 364.313,106 256,106 "/>
<g>
</g>
<g>
</g>
<g>
</g>
<g>
</g>
<g>
</g>
<g>
</g>
<g>
</g>
<g>
</g>
<g>
</g>
<g>
</g>
<g>
</g>
<g>
</g>
<g>
</g>
<g>
</g>
<g>
</g>
</svg>
