<?xml version="1.0" encoding="iso-8859-1"?>
<!-- Generator: Adobe Illustrator 19.0.0, SVG Export Plug-In . SVG Version: 6.00 Build 0)  -->
<svg version="1.1" id="Capa_1" xmlns="http://www.w3.org/2000/svg" xmlns:xlink="http://www.w3.org/1999/xlink" x="0px" y="0px"
	 viewBox="0 0 512 512" style="enable-background:new 0 0 512 512;" xml:space="preserve">
<path style="fill:#FEC478;" d="M512,512H0V0h512V512z"/>
<path style="fill:#FEA832;" d="M512,512H256V0h256V512z"/>
<path style="fill:#994C0F;" d="M482,482H30V30h452V482z"/>
<path style="fill:#713708;" d="M482,482H256V30h226V482z"/>
<path style="fill:#FEC478;" d="M296.013,86h-80.025c-0.321,49.11-24.238,92.613-60.987,119.746V241l86,154.8V266.977
	c-8.964-5.188-15-14.874-15-25.977c0-16.568,13.431-30,30-30s30,13.432,30,30c0,11.103-6.036,20.789-15,25.977V395.8L357,241
	v-35.254C320.251,178.613,296.334,135.11,296.013,86z"/>
<polygon style="fill:#FFFFFF;" points="446.983,216.304 256.479,413.368 76.537,205.664 45.605,234.233 256.479,448.46 
	454.875,223.594 "/>
<path style="fill:#FEA832;" d="M296.013,86H256v125c16.569,0,30,13.432,30,30c0,11.103-6.036,20.789-15,25.977V395.8L357,241
	v-35.254C320.251,178.613,296.334,135.11,296.013,86z"/>
<polygon style="fill:#E5E5E5;" points="446.983,216.304 256.479,413.368 256,412.815 256,447.974 256.479,448.46 454.875,223.594 
	"/>
<g>
</g>
<g>
</g>
<g>
</g>
<g>
</g>
<g>
</g>
<g>
</g>
<g>
</g>
<g>
</g>
<g>
</g>
<g>
</g>
<g>
</g>
<g>
</g>
<g>
</g>
<g>
</g>
<g>
</g>
</svg>
