<?xml version="1.0" encoding="iso-8859-1"?>
<!-- Generator: Adobe Illustrator 19.0.0, SVG Export Plug-In . SVG Version: 6.00 Build 0)  -->
<svg version="1.1" id="Capa_1" xmlns="http://www.w3.org/2000/svg" xmlns:xlink="http://www.w3.org/1999/xlink" x="0px" y="0px"
	 viewBox="0 0 512 512" style="enable-background:new 0 0 512 512;" xml:space="preserve">
<path style="fill:#F8D9FF;" d="M512,512H0V0h512V512z"/>
<path style="fill:#F3C0FF;" d="M512,512H256V0h256V512z"/>
<path style="fill:#723B7F;" d="M482,482H30V30h452V482z"/>
<path style="fill:#5C3066;" d="M482,482H256V30h226V482z"/>
<g>
	<path style="fill:#F8D9FF;" d="M179.6,352V181.6h33.12V352H179.6z"/>
	<path style="fill:#F8D9FF;" d="M235.521,289.12c0-39.12,30.229-65.04,66.24-65.04c36.738,0,52.08,22.56,56.879,32.16l-31.439,9.6
		c-2.723-4.639-10.346-14.4-25.68-14.4c-18.521,0-32.881,15.36-32.881,37.68c0,18.63,12.609,37.92,32.881,37.92
		c16.479,0,24.24-10.718,26.16-14.88l31.439,9.6c-4.32,9.6-19.621,32.64-57.119,32.64C262,354.4,235.521,324.75,235.521,289.12z"/>
</g>
<path style="fill:#F3C0FF;" d="M327.682,312.16c-1.92,4.162-9.682,14.88-26.16,14.88c-20.271,0-32.881-19.29-32.881-37.92
	c0-22.32,14.359-37.68,32.881-37.68c15.334,0,22.957,9.761,25.68,14.4l31.439-9.6c-4.799-9.6-20.141-32.16-56.879-32.16
	c-17.586,0-33.781,6.195-45.762,17.076v96.139c11.474,10.591,27.252,17.105,46.002,17.105c37.498,0,52.799-23.04,57.119-32.64
	L327.682,312.16z"/>
<g>
</g>
<g>
</g>
<g>
</g>
<g>
</g>
<g>
</g>
<g>
</g>
<g>
</g>
<g>
</g>
<g>
</g>
<g>
</g>
<g>
</g>
<g>
</g>
<g>
</g>
<g>
</g>
<g>
</g>
</svg>
