<?xml version="1.0" encoding="iso-8859-1"?>
<!-- Generator: Adobe Illustrator 19.0.0, SVG Export Plug-In . SVG Version: 6.00 Build 0)  -->
<svg version="1.1" id="Capa_1" xmlns="http://www.w3.org/2000/svg" xmlns:xlink="http://www.w3.org/1999/xlink" x="0px" y="0px"
	 viewBox="0 0 512 512" style="enable-background:new 0 0 512 512;" xml:space="preserve">
<path style="fill:#F8D9FF;" d="M512,512H0V0h512V512z"/>
<path style="fill:#F3C0FF;" d="M512,512H256V0h256V512z"/>
<path style="fill:#723B7F;" d="M482,482H30V30h452V482z"/>
<path style="fill:#5C3066;" d="M482,482H256V30h226V482z"/>
<g>
	<rect x="361" y="241" style="fill:#F3C0FF;" width="30" height="30"/>
	<rect x="301" y="241" style="fill:#F3C0FF;" width="30" height="30"/>
	<rect x="331" y="271" style="fill:#F3C0FF;" width="30" height="30"/>
	<rect x="361" y="301" style="fill:#F3C0FF;" width="30" height="30"/>
	<rect x="391" y="331" style="fill:#F3C0FF;" width="30" height="30"/>
</g>
<polygon style="fill:#F8D9FF;" points="361,361 361,331 331,331 331,301 301,301 301,271 271,271 271,241 241,241 241,211 211,211 
	211,181 181,181 181,151 151,151 151,121 121,121 121,91 91,91 91,421 391,421 421,421 421,391 391,391 391,361 "/>
<rect x="271" y="211" style="fill:#F3C0FF;" width="30" height="30"/>
<rect x="241" y="181" style="fill:#F8D9FF;" width="30" height="30"/>
<g>
	<rect x="361" y="181" style="fill:#F3C0FF;" width="30" height="30"/>
	<rect x="301" y="181" style="fill:#F3C0FF;" width="30" height="30"/>
</g>
<g>
	<rect x="211" y="151" style="fill:#F8D9FF;" width="30" height="30"/>
	<rect x="241" y="121" style="fill:#F8D9FF;" width="30" height="30"/>
	<rect x="181" y="121" style="fill:#F8D9FF;" width="30" height="30"/>
</g>
<rect x="301" y="121" style="fill:#F3C0FF;" width="30" height="30"/>
<rect x="151" y="91" style="fill:#F8D9FF;" width="30" height="30"/>
<g>
	<rect x="256" y="181" style="fill:#F3C0FF;" width="15" height="30"/>
	<rect x="256" y="121" style="fill:#F3C0FF;" width="15" height="30"/>
	<polygon style="fill:#F3C0FF;" points="391,391 391,361 361,361 361,331 331,331 331,301 301,301 301,271 271,271 271,241 256,241 
		256,421 391,421 421,421 421,391 	"/>
</g>
<g>
</g>
<g>
</g>
<g>
</g>
<g>
</g>
<g>
</g>
<g>
</g>
<g>
</g>
<g>
</g>
<g>
</g>
<g>
</g>
<g>
</g>
<g>
</g>
<g>
</g>
<g>
</g>
<g>
</g>
</svg>
