<?xml version="1.0" encoding="iso-8859-1"?>
<!-- Generator: Adobe Illustrator 19.0.0, SVG Export Plug-In . SVG Version: 6.00 Build 0)  -->
<svg version="1.1" id="Capa_1" xmlns="http://www.w3.org/2000/svg" xmlns:xlink="http://www.w3.org/1999/xlink" x="0px" y="0px"
	 viewBox="0 0 512 512" style="enable-background:new 0 0 512 512;" xml:space="preserve">
<path style="fill:#DAFF73;" d="M512,512H0V0h512V512z"/>
<path style="fill:#AFFC00;" d="M512,512H256V0h256V512z"/>
<path style="fill:#5D7F00;" d="M482,482H30V30h452V482z"/>
<path style="fill:#506600;" d="M482,482H256V30h226V482z"/>
<path style="fill:#DAFF73;" d="M236.262,352V239.2l-43.92,84h-18l-43.92-84V352H97.301V181.6h35.521l50.4,96.96l50.88-96.96h35.279
	V352H236.262z"/>
<g>
	<path style="fill:#AFFC00;" d="M340.18,354.4c-25.68,0-39.601-16.9-39.601-49.44v-78.72h32.16V298c0,19.361,6.96,29.04,20.88,29.04
		c18.631,0,28.717-15.12,32.4-22.8v-78h32.16v88.8c0,3.36,0.32,9.21,7.68,9.6V352c-3.203,0.637-5.881,1.039-8.04,1.2
		c-2.16,0.157-4.122,0.24-5.88,0.24c-15.689,0-19.763-10.237-20.4-14.88l-0.72-10.08C385.217,337.12,370,354.4,340.18,354.4z"/>
	<rect x="256" y="181.6" style="fill:#AFFC00;" width="13.381" height="170.4"/>
</g>
<g>
</g>
<g>
</g>
<g>
</g>
<g>
</g>
<g>
</g>
<g>
</g>
<g>
</g>
<g>
</g>
<g>
</g>
<g>
</g>
<g>
</g>
<g>
</g>
<g>
</g>
<g>
</g>
<g>
</g>
</svg>
