<?xml version="1.0" encoding="iso-8859-1"?>
<!-- Generator: Adobe Illustrator 19.0.0, SVG Export Plug-In . SVG Version: 6.00 Build 0)  -->
<svg version="1.1" id="Capa_1" xmlns="http://www.w3.org/2000/svg" xmlns:xlink="http://www.w3.org/1999/xlink" x="0px" y="0px"
	 viewBox="0 0 512 512" style="enable-background:new 0 0 512 512;" xml:space="preserve">
<path style="fill:#99FFEB;" d="M512,512H0V0h512V512z"/>
<path style="fill:#4DFFE5;" d="M512,512H256V0h256V512z"/>
<path style="fill:#354E72;" d="M482,482H30V30h452V482z"/>
<path style="fill:#2C4060;" d="M482,482H256V30h226V482z"/>
<path style="fill:#99FFEB;" d="M253.542,308.08c0,18.17-11.755,43.92-54.96,43.92h-82.32V181.6h91.2
	c17.95,0,38.88,16.275,38.88,43.44c0,15.96-8.055,32.585-24.48,39.6C241.662,270,253.542,286.625,253.542,308.08z M149.382,209.92
	v42.96h44.16c12.245,0,20.16-9.63,20.16-21.6c0-12.78-8.04-21.36-18.72-21.36H149.382z M220.182,301.84
	c0-13.559-10.52-22.8-19.92-22.8h-50.88v44.88h49.2C209.412,323.92,220.182,314.875,220.182,301.84z"/>
<path style="fill:#4DFFE5;" d="M328.421,354.4c-36.922,0-59.761-30.775-59.761-65.28c0-39.12,26.339-65.04,56.16-65.04
	c25.262,0,38.317,17.04,42.479,24.24V176.8h32.16v138.24c0,3.36,4.718,9.442,7.44,9.6V352c-5.603,1.118-10.163,1.68-13.681,1.68
	c-23.221,0-21.119-23.52-21.119-23.52C367.458,338.163,353.624,354.4,328.421,354.4z M336.82,327.04
	c20.179,0,29.358-18.079,30.479-21.12v-30c-1.282-3.518-12.801-24.48-32.399-24.48c-21.901,0-32.88,21.727-32.88,38.4
	C302.021,308.167,315.499,327.04,336.82,327.04z"/>
<g>
</g>
<g>
</g>
<g>
</g>
<g>
</g>
<g>
</g>
<g>
</g>
<g>
</g>
<g>
</g>
<g>
</g>
<g>
</g>
<g>
</g>
<g>
</g>
<g>
</g>
<g>
</g>
<g>
</g>
</svg>
