<?xml version="1.0" encoding="iso-8859-1"?>
<!-- Generator: Adobe Illustrator 19.0.0, SVG Export Plug-In . SVG Version: 6.00 Build 0)  -->
<svg version="1.1" id="Capa_1" xmlns="http://www.w3.org/2000/svg" xmlns:xlink="http://www.w3.org/1999/xlink" x="0px" y="0px"
	 viewBox="0 0 512 512" style="enable-background:new 0 0 512 512;" xml:space="preserve">
<path style="fill:#00C3FF;" d="M512,512H0V0h512V512z"/>
<path style="fill:#00AAF0;" d="M512,512H256V0h256V512z"/>
<path style="fill:#063E8B;" d="M482,482H30V30h452V482z"/>
<path style="fill:#032E68;" d="M482,482H256V30h226V482z"/>
<path style="fill:#00C3FF;" d="M258.824,312.821c-8.063,4.733-13.8,12.322-16.153,21.369c-0.614,2.359-2.901,3.944-5.336,3.695
	l-25.814-2.695L245.257,411h21.486l42.558-95.636l-23.944-6.231C276.308,306.778,266.886,308.088,258.824,312.821z"/>
<path style="fill:#CCEFFF;" d="M300.407,130.197c5.69,0,11.341,0.897,16.937,1.771L170.415,233.614l12.486,18.783h0.001
	c0.009-0.006,0.019-0.012,0.028-0.019c0,0,55.445-41.878,112.521-38.739c6.471,0.356,14.986,2.08,20.909,3.571l-118.428,81.952
	l6.801,10.341l149.7-93.46c0,0-20.6-20.377-57.59-23.018c-7.235-0.517-14.435-0.437-21.559,0.165l108.028-69.231
	c0,0-35.813-23.967-93.813-23.967c-72.25,0-128.554,43.461-142.902,54.987l18.805,23.375
	C178.351,167.954,222.5,130.197,300.407,130.197z"/>
<path style="fill:#ACE3FC;" d="M275.285,193.191l108.028-69.231c0,0-35.813-23.967-93.813-23.967c-11.616,0-22.817,1.128-33.5,3.062
	v31.507c13.352-2.702,28.133-4.365,44.407-4.365c5.69,0,11.341,0.897,16.937,1.771L256,174.406v43.397
	c12.587-3.135,25.974-4.906,39.452-4.165c6.47,0.356,14.986,2.08,20.909,3.571L256,258.98v18.518l98.433-61.454
	c0,0-20.6-20.377-57.59-23.018C289.609,192.509,282.408,192.589,275.285,193.191z"/>
<path style="fill:#00AAF0;" d="M285.356,309.133c-9.049-2.354-18.471-1.044-26.532,3.688c-0.977,0.573-1.918,1.19-2.824,1.845V411
	h10.743l42.558-95.636L285.356,309.133z"/>
<g>
</g>
<g>
</g>
<g>
</g>
<g>
</g>
<g>
</g>
<g>
</g>
<g>
</g>
<g>
</g>
<g>
</g>
<g>
</g>
<g>
</g>
<g>
</g>
<g>
</g>
<g>
</g>
<g>
</g>
</svg>
