<?xml version="1.0" encoding="iso-8859-1"?>
<!-- Generator: Adobe Illustrator 19.0.0, SVG Export Plug-In . SVG Version: 6.00 Build 0)  -->
<svg version="1.1" id="Capa_1" xmlns="http://www.w3.org/2000/svg" xmlns:xlink="http://www.w3.org/1999/xlink" x="0px" y="0px"
	 viewBox="0 0 512 512" style="enable-background:new 0 0 512 512;" xml:space="preserve">
<path style="fill:#00C3FF;" d="M512,512H0V0h512V512z"/>
<path style="fill:#00AAF0;" d="M512,512H256V0h256V512z"/>
<path style="fill:#063E8B;" d="M482,482H30V30h452V482z"/>
<path style="fill:#032E68;" d="M482,482H256V30h226V482z"/>
<g>
	
		<rect x="170.792" y="240.992" transform="matrix(-0.7071 -0.7071 0.7071 -0.7071 255.9999 618.0219)" style="fill:#CCEFFF;" width="170.408" height="30"/>
	
		<rect x="148.362" y="285.995" transform="matrix(-0.7071 -0.7071 0.7071 -0.7071 147.3655 663.0312)" style="fill:#CCEFFF;" width="125.279" height="30"/>
	
		<rect x="232.478" y="195.999" transform="matrix(-0.7071 -0.7071 0.7071 -0.7071 364.6448 573.0383)" style="fill:#CCEFFF;" width="137.049" height="30"/>
</g>
<g>
	<polygon style="fill:#ACE3FC;" points="256,277.213 305.644,326.856 326.856,305.644 256,234.787 	"/>
	<polygon style="fill:#ACE3FC;" points="256,344.589 265.901,334.688 256,324.787 	"/>
	<polygon style="fill:#ACE3FC;" points="263.152,151.94 256,159.092 256,187.213 338.848,270.06 360.061,248.847 	"/>
</g>
<g>
	<path style="fill:#00C3FF;" d="M419.239,270.738l29.338-6.27c-4.562-21.348-13.428-41.141-26.353-58.829l-24.223,17.699
		C408.42,237.597,415.565,253.544,419.239,270.738z"/>
	<path style="fill:#00C3FF;" d="M297,422c-4.342,0-8.72-0.225-13.012-0.668l-3.082,29.841C286.218,451.722,291.633,452,297,452
		c16.383,0,32.521-2.546,47.967-7.569l-9.277-28.529C323.245,419.948,310.228,422,297,422z"/>
	<path style="fill:#00C3FF;" d="M195.918,370.552c-0.457-0.627-0.893-1.265-1.337-1.899C201.264,369.537,208.079,370,215,370
		c85.468,0,155-69.533,155-155c0-6.927-0.464-13.747-1.349-20.436c4.094,2.873,8.041,5.995,11.816,9.383l20.041-22.324
		c-12.837-11.524-27.222-20.665-42.886-27.306C333.963,98.923,278.943,60,215,60c-85.468,0-155,69.533-155,155
		c0,63.933,38.911,118.946,94.292,142.611c4.573,10.765,10.376,21.001,17.384,30.614L195.918,370.552z M297,172
		c12.766,0,25.282,1.908,37.304,5.665C338.003,189.459,340,202.001,340,215c0,68.925-56.075,125-125,125
		c-12.999,0-25.541-1.997-37.336-5.696C173.908,322.281,172,309.765,172,297C172,228.075,228.075,172,297,172z"/>
	<path style="fill:#00C3FF;" d="M422,296.698V297c0,17.706-3.621,34.808-10.764,50.832l27.4,12.214
		C447.504,340.153,452,318.941,452,297v-0.302H422z"/>
	<path style="fill:#00C3FF;" d="M359.534,405.26l15.033,25.962c18.624-10.784,35.169-25.696,47.849-43.124l-24.26-17.649
		C387.92,384.52,374.564,396.557,359.534,405.26z"/>
	<path style="fill:#00C3FF;" d="M193.368,412.265c16.293,14.656,35.073,25.495,55.82,32.217l9.246-28.54
		c-16.718-5.417-31.859-14.158-45.002-25.981L193.368,412.265z"/>
</g>
<g>
	<path style="fill:#00AAF0;" d="M256,178.915c12.85-4.475,26.645-6.915,41-6.915c12.766,0,25.282,1.908,37.304,5.665
		C338.003,189.459,340,202.001,340,215c0,54.57-35.153,101.077-84,118.085v31.4C321.634,346.463,370,286.278,370,215
		c0-6.927-0.464-13.747-1.349-20.436c4.094,2.873,8.041,5.995,11.816,9.383l20.041-22.324
		c-12.837-11.524-27.222-20.665-42.886-27.306c-18.409-43.104-55.808-76.23-101.622-88.81V178.915z"/>
	<path style="fill:#00AAF0;" d="M256,423.457l2.435-7.515c-0.816-0.265-1.626-0.543-2.435-0.824V423.457z"/>
	<path style="fill:#00AAF0;" d="M419.239,270.738l29.338-6.27c-4.562-21.348-13.428-41.141-26.353-58.829l-24.223,17.699
		C408.42,237.597,415.565,253.544,419.239,270.738z"/>
	<path style="fill:#00AAF0;" d="M422,296.698V297c0,17.706-3.621,34.808-10.764,50.832l27.4,12.214
		C447.504,340.153,452,318.941,452,297v-0.302H422z"/>
	<path style="fill:#00AAF0;" d="M297,422c-4.342,0-8.72-0.225-13.012-0.668l-3.082,29.841C286.218,451.722,291.633,452,297,452
		c16.383,0,32.521-2.546,47.967-7.569l-9.277-28.529C323.245,419.948,310.228,422,297,422z"/>
	<path style="fill:#00AAF0;" d="M359.534,405.26l15.033,25.962c18.624-10.784,35.169-25.696,47.849-43.124l-24.26-17.649
		C387.92,384.52,374.564,396.557,359.534,405.26z"/>
</g>
<g>
</g>
<g>
</g>
<g>
</g>
<g>
</g>
<g>
</g>
<g>
</g>
<g>
</g>
<g>
</g>
<g>
</g>
<g>
</g>
<g>
</g>
<g>
</g>
<g>
</g>
<g>
</g>
<g>
</g>
</svg>
