<?xml version="1.0" encoding="iso-8859-1"?>
<!-- Generator: Adobe Illustrator 19.0.0, SVG Export Plug-In . SVG Version: 6.00 Build 0)  -->
<svg version="1.1" id="Capa_1" xmlns="http://www.w3.org/2000/svg" xmlns:xlink="http://www.w3.org/1999/xlink" x="0px" y="0px"
	 viewBox="0 0 512 512" style="enable-background:new 0 0 512 512;" xml:space="preserve">
<path style="fill:#00C3FF;" d="M512,512H0V0h512V512z"/>
<path style="fill:#00AAF0;" d="M512,512H256V0h256V512z"/>
<path style="fill:#063E8B;" d="M482,482H30V30h452V482z"/>
<path style="fill:#032E68;" d="M482,482H256V30h226V482z"/>
<path style="fill:#00C3FF;" d="M256,441c-102.009,0-185-82.991-185-185S153.991,71,256,71c102.01,0,185,82.991,185,185
	S358.01,441,256,441z M256,101c-85.467,0-155,69.533-155,155s69.533,155,155,155s155-69.533,155-155S341.467,101,256,101z"/>
<polygon style="fill:#CCEFFF;" points="336,241 271,241 271,176 241,176 241,241 176,241 176,271 241,271 241,336 271,336 271,271 
	336,271 "/>
<path style="fill:#00AAF0;" d="M256,71v30c85.467,0,155,69.533,155,155s-69.533,155-155,155v30c102.01,0,185-82.991,185-185
	S358.01,71,256,71z"/>
<polygon style="fill:#ACE3FC;" points="271,241 271,176 256,176 256,336 271,336 271,271 336,271 336,241 "/>
<g>
</g>
<g>
</g>
<g>
</g>
<g>
</g>
<g>
</g>
<g>
</g>
<g>
</g>
<g>
</g>
<g>
</g>
<g>
</g>
<g>
</g>
<g>
</g>
<g>
</g>
<g>
</g>
<g>
</g>
</svg>
