<?xml version="1.0" encoding="iso-8859-1"?>
<!-- Generator: Adobe Illustrator 19.0.0, SVG Export Plug-In . SVG Version: 6.00 Build 0)  -->
<svg version="1.1" id="Capa_1" xmlns="http://www.w3.org/2000/svg" xmlns:xlink="http://www.w3.org/1999/xlink" x="0px" y="0px"
	 viewBox="0 0 512 512" style="enable-background:new 0 0 512 512;" xml:space="preserve">
<path style="fill:#00C3FF;" d="M512,512H0V0h512V512z"/>
<path style="fill:#00AAF0;" d="M512,512H256V0h256V512z"/>
<path style="fill:#063E8B;" d="M482,482H30V30h452V482z"/>
<path style="fill:#032E68;" d="M482,482H256V30h226V482z"/>
<path style="fill:#00C3FF;" d="M273.32,226l25.174-43.603C285.991,175.162,271.486,171,256,171c-4.695,0-9.295,0.397-13.782,1.129
	L273.32,226z"/>
<g>
	<path style="fill:#00AAF0;" d="M273.32,286l25.174,43.603c16.872-9.763,30.076-25.146,37.042-43.603H273.32z"/>
	<path style="fill:#00AAF0;" d="M290.641,256H341c0-20.449-7.225-39.208-19.256-53.872L290.641,256z"/>
</g>
<g>
	<path style="fill:#00C3FF;" d="M238.68,286l-25.174,43.603C226.009,336.838,240.514,341,256,341c4.695,0,9.295-0.397,13.782-1.129
		L238.68,286z"/>
	<path style="fill:#00C3FF;" d="M171,256c0,20.449,7.225,39.208,19.256,53.872L221.359,256H171z"/>
	<path style="fill:#00C3FF;" d="M176.463,226h62.216l-25.174-43.603C196.633,192.159,183.429,207.542,176.463,226z"/>
</g>
<path style="fill:#CCEFFF;" d="M289.52,447.464c-11.84,2.073-23.779-0.589-33.616-7.496L83.007,318.59
	c-9.838-6.906-16.398-17.23-18.471-29.07s0.589-23.779,7.496-33.616L193.41,83.007c6.906-9.838,17.23-16.398,29.07-18.471
	s23.779,0.589,33.616,7.496L428.993,193.41c9.838,6.906,16.398,17.23,18.471,29.07s-0.589,23.779-7.496,33.616L318.59,428.993
	C311.684,438.831,301.36,445.391,289.52,447.464z M227.653,94.087c-3.947,0.691-7.388,2.878-9.69,6.157L96.585,273.141
	c-2.302,3.28-3.19,7.259-2.499,11.206s2.878,7.388,6.157,9.69L273.14,415.415c3.28,2.302,7.259,3.19,11.206,2.499
	s7.388-2.878,9.69-6.157L415.414,238.86c2.302-3.28,3.19-7.259,2.499-11.206s-2.878-7.388-6.157-9.69L238.859,96.585
	C235.579,94.283,231.6,93.396,227.653,94.087z"/>
<path style="fill:#ACE3FC;" d="M447.464,222.479c-2.073-11.84-8.633-22.164-18.47-29.07L256.096,72.032
	c-0.032-0.022-0.064-0.042-0.096-0.064v36.65l155.756,109.344c3.279,2.303,5.466,5.744,6.157,9.69s-0.197,7.926-2.499,11.206
	L294.037,411.756c-2.302,3.279-5.744,5.466-9.69,6.157c-3.947,0.691-7.926-0.196-11.206-2.499L256,403.381v36.65
	c9.819,6.857,21.718,9.499,33.52,7.432c11.84-2.073,22.164-8.633,29.07-18.471l121.378-172.897
	C446.875,246.258,449.537,234.32,447.464,222.479z"/>
<g>
	<path style="fill:#00AAF0;" d="M256,341c4.695,0,9.295-0.397,13.782-1.129L256,316V341z"/>
	<path style="fill:#00AAF0;" d="M256,171v25l17.32,30l25.174-43.604C285.991,175.162,271.486,171,256,171z"/>
</g>
<g>
</g>
<g>
</g>
<g>
</g>
<g>
</g>
<g>
</g>
<g>
</g>
<g>
</g>
<g>
</g>
<g>
</g>
<g>
</g>
<g>
</g>
<g>
</g>
<g>
</g>
<g>
</g>
<g>
</g>
</svg>
