<?xml version="1.0" encoding="iso-8859-1"?>
<!-- Generator: Adobe Illustrator 19.0.0, SVG Export Plug-In . SVG Version: 6.00 Build 0)  -->
<svg version="1.1" id="Capa_1" xmlns="http://www.w3.org/2000/svg" xmlns:xlink="http://www.w3.org/1999/xlink" x="0px" y="0px"
	 viewBox="0 0 512 512" style="enable-background:new 0 0 512 512;" xml:space="preserve">
<path style="fill:#FFEA84;" d="M512,512H0V0h512V512z"/>
<path style="fill:#FFDC40;" d="M512,512H256V0h256V512z"/>
<path style="fill:#57565C;" d="M482,482H30V30h452V482z"/>
<path style="fill:#3E3D42;" d="M482,482H256V30h226V482z"/>
<g>
	<path id="SVGCleanerId_0" d="M401,401H111V111h290V401z M141,371h230V141H141V371z"/>
</g>
<g>
	<path id="SVGCleanerId_0_1_" d="M401,401H111V111h290V401z M141,371h230V141H141V371z"/>
</g>
<g>
	<path id="SVGCleanerId_0_2_" d="M401,401H111V111h290V401z M141,371h230V141H141V371z"/>
</g>
<polygon style="fill:#FFFFFF;" points="318.065,133.5 298.093,98.907 256,123.209 213.907,98.907 193.935,133.5 167.954,118.5 
	202.927,57.926 256,88.568 309.073,57.926 344.046,118.5 "/>
<polygon style="fill:#E5E5E5;" points="393.5,344.046 378.5,318.065 413.093,298.093 388.791,256 413.093,213.907 378.499,193.934 
	393.499,167.954 454.073,202.926 423.432,256 454.073,309.074 "/>
<g>
	<polygon style="fill:#FFFFFF;" points="309.073,454.074 256,423.432 202.927,454.074 167.958,393.507 193.938,378.507 
		213.907,413.093 256,388.791 298.093,413.093 318.065,378.5 344.046,393.5 	"/>
	<polygon style="fill:#FFFFFF;" points="118.493,344.042 57.927,309.074 88.568,256 57.927,202.926 118.5,167.954 133.5,193.935 
		98.907,213.907 123.209,256 98.907,298.093 133.493,318.062 	"/>
</g>
<g>
	<polygon style="fill:#E5E5E5;" points="256,123.209 298.093,98.907 318.065,133.5 344.046,118.5 309.073,57.926 256,88.568 	"/>
	<polygon style="fill:#E5E5E5;" points="298.093,413.093 256,388.791 256,423.432 309.073,454.074 344.046,393.5 318.065,378.5 	"/>
</g>
<g>
	<path id="SVGCleanerId_0_3_" style="fill:#FFEA84;" d="M401,401H111V111h290V401z M141,371h230V141H141V371z"/>
</g>
<polygon style="fill:#FFDC40;" points="256,111 256,141 371,141 371,371 256,371 256,401 401,401 401,111 "/>
<g>
</g>
<g>
</g>
<g>
</g>
<g>
</g>
<g>
</g>
<g>
</g>
<g>
</g>
<g>
</g>
<g>
</g>
<g>
</g>
<g>
</g>
<g>
</g>
<g>
</g>
<g>
</g>
<g>
</g>
</svg>
