<?xml version="1.0" encoding="iso-8859-1"?>
<!-- Generator: Adobe Illustrator 19.0.0, SVG Export Plug-In . SVG Version: 6.00 Build 0)  -->
<svg version="1.1" id="Capa_1" xmlns="http://www.w3.org/2000/svg" xmlns:xlink="http://www.w3.org/1999/xlink" x="0px" y="0px"
	 viewBox="0 0 512 512" style="enable-background:new 0 0 512 512;" xml:space="preserve">
<path style="fill:#CCEFFF;" d="M512,512H0V0h512V512z"/>
<path style="fill:#ACE3FC;" d="M512,512H256V0h256V512z"/>
<path style="fill:#0C61C6;" d="M482,482H30V30h452V482z"/>
<path style="fill:#0A4EAF;" d="M482,482H256V30h226V482z"/>
<path style="fill:#CCEFFF;" d="M160.682,352V181.6h72.24c33.064,0,54.24,30.4,54.24,56.64c0,30.927-23.509,56.64-53.04,56.64h-40.32
	V352H160.682z M193.802,265.84h38.4c11.618,0,21.36-10.84,21.36-27.6c0-14.4-8.743-27.6-22.8-27.6h-36.96V265.84z"/>
<g>
	<path style="fill:#ACE3FC;" d="M306.839,176.8h32.16v134.88c0,9.986,5.459,14.64,12.96,14.64c5.166,0,10.879-2.4,12.96-3.36
		l4.319,24.48c-4.319,2.082-16.988,6.48-30.719,6.48c-17.27,0-31.681-9.42-31.681-30.96V176.8H306.839z"/>
	<path style="fill:#ACE3FC;" d="M256,187.104v102.725c18.455-8.959,31.162-28.858,31.162-51.588
		C287.162,218.779,275.506,197.042,256,187.104z"/>
</g>
<g>
</g>
<g>
</g>
<g>
</g>
<g>
</g>
<g>
</g>
<g>
</g>
<g>
</g>
<g>
</g>
<g>
</g>
<g>
</g>
<g>
</g>
<g>
</g>
<g>
</g>
<g>
</g>
<g>
</g>
</svg>
