<?xml version="1.0" encoding="iso-8859-1"?>
<!-- Generator: Adobe Illustrator 19.0.0, SVG Export Plug-In . SVG Version: 6.00 Build 0)  -->
<svg version="1.1" id="Capa_1" xmlns="http://www.w3.org/2000/svg" xmlns:xlink="http://www.w3.org/1999/xlink" x="0px" y="0px"
	 viewBox="0 0 512 512" style="enable-background:new 0 0 512 512;" xml:space="preserve">
<path style="fill:#F8D9FF;" d="M512,512H0V0h512V512z"/>
<path style="fill:#F3C0FF;" d="M512,512H256V0h256V512z"/>
<path style="fill:#723B7F;" d="M482,482H30V30h452V482z"/>
<path style="fill:#5C3066;" d="M482,482H256V30h226V482z"/>
<g>
	<polygon style="fill:#F8D9FF;" points="153,98.383 123.167,81.159 123.167,430.841 153,413.617 	"/>
	<polygon style="fill:#F8D9FF;" points="213,133.024 183,115.704 183,396.296 213,378.976 	"/>
	<path style="fill:#F8D9FF;" d="M243,361.655v-211.31L426,256L243,361.655z M273,202.307v107.387L366,256L273,202.307z"/>
</g>
<path style="fill:#F3C0FF;" d="M256,157.85v196.3L426,256L256,157.85z M273,202.307L366,256l-93,53.693V202.307z"/>
<g>
</g>
<g>
</g>
<g>
</g>
<g>
</g>
<g>
</g>
<g>
</g>
<g>
</g>
<g>
</g>
<g>
</g>
<g>
</g>
<g>
</g>
<g>
</g>
<g>
</g>
<g>
</g>
<g>
</g>
</svg>
