<?xml version="1.0" encoding="iso-8859-1"?>
<!-- Generator: Adobe Illustrator 19.0.0, SVG Export Plug-In . SVG Version: 6.00 Build 0)  -->
<svg version="1.1" id="Capa_1" xmlns="http://www.w3.org/2000/svg" xmlns:xlink="http://www.w3.org/1999/xlink" x="0px" y="0px"
	 viewBox="0 0 512 512" style="enable-background:new 0 0 512 512;" xml:space="preserve">
<path style="fill:#F8D9FF;" d="M512,512H0V0h512V512z"/>
<path style="fill:#F3C0FF;" d="M512,512H256V0h256V512z"/>
<path style="fill:#723B7F;" d="M482,482H30V30h452V482z"/>
<path style="fill:#5C3066;" d="M482,482H256V30h226V482z"/>
<path style="fill:#F8D9FF;" d="M156.94,352V181.6h72.24c33.064,0,54.24,30.4,54.24,56.64c0,30.927-23.509,56.64-53.04,56.64h-40.32
	V352H156.94z M190.061,265.84h38.4c11.618,0,21.36-10.84,21.36-27.6c0-14.4-8.743-27.6-22.8-27.6h-36.96V265.84z"/>
<g>
	<path style="fill:#F3C0FF;" d="M378.217,254.08c-28.29,0-39.36,14.64-42.72,21.84V352h-32.16V226.24h29.52v26.88
		c2.239-4.32,16.32-31.37,45.36-28.32L378.217,254.08L378.217,254.08z"/>
	<path style="fill:#F3C0FF;" d="M256,189.206v98.623c16.411-9.712,27.421-28.428,27.421-49.589
		C283.421,220.057,273.246,199.885,256,189.206z"/>
</g>
<g>
</g>
<g>
</g>
<g>
</g>
<g>
</g>
<g>
</g>
<g>
</g>
<g>
</g>
<g>
</g>
<g>
</g>
<g>
</g>
<g>
</g>
<g>
</g>
<g>
</g>
<g>
</g>
<g>
</g>
</svg>
