<?xml version="1.0" encoding="iso-8859-1"?>
<!-- Generator: Adobe Illustrator 19.0.0, SVG Export Plug-In . SVG Version: 6.00 Build 0)  -->
<svg version="1.1" id="Capa_1" xmlns="http://www.w3.org/2000/svg" xmlns:xlink="http://www.w3.org/1999/xlink" x="0px" y="0px"
	 viewBox="0 0 512 512" style="enable-background:new 0 0 512 512;" xml:space="preserve">
<path style="fill:#FFEA84;" d="M512,512H0V0h512V512z"/>
<path style="fill:#FFDC40;" d="M512,512H256V0h256V512z"/>
<path style="fill:#57565C;" d="M482,482H30V30h452V482z"/>
<path style="fill:#3E3D42;" d="M482,482H256V30h226V482z"/>
<g>
	<polygon style="fill:#FFFFFF;" points="272,316.789 207,225 170.346,225 272,369.004 	"/>
	<polygon style="fill:#FFFFFF;" points="240,195.211 303.846,287 340.5,287 240,142.997 	"/>
</g>
<g>
	<polygon style="fill:#E5E5E5;" points="256,346.338 272,369.004 272,316.789 256,294.195 	"/>
	<polygon style="fill:#E5E5E5;" points="256,165.922 256,218.213 303.846,287 340.5,287 	"/>
</g>
<path style="fill:#FFEA84;" d="M210,240H90V90h120V240z M120,210h60v-90h-60V210z"/>
<path style="fill:#FFDC40;" d="M422,422H302V272h120V422z M332,392h60v-90h-60V392z"/>
<g>
</g>
<g>
</g>
<g>
</g>
<g>
</g>
<g>
</g>
<g>
</g>
<g>
</g>
<g>
</g>
<g>
</g>
<g>
</g>
<g>
</g>
<g>
</g>
<g>
</g>
<g>
</g>
<g>
</g>
</svg>
