<?xml version="1.0" encoding="iso-8859-1"?>
<!-- Generator: Adobe Illustrator 19.0.0, SVG Export Plug-In . SVG Version: 6.00 Build 0)  -->
<svg version="1.1" id="Capa_1" xmlns="http://www.w3.org/2000/svg" xmlns:xlink="http://www.w3.org/1999/xlink" x="0px" y="0px"
	 viewBox="0 0 512 512" style="enable-background:new 0 0 512 512;" xml:space="preserve">
<path style="fill:#FFEA84;" d="M512,512H0V0h512V512z"/>
<path style="fill:#FFDC40;" d="M512,512H256V0h256V512z"/>
<path style="fill:#57565C;" d="M482,482H30V30h452V482z"/>
<path style="fill:#3E3D42;" d="M482,482H256V30h226V482z"/>
<path style="fill:#FFEA84;" d="M227.142,226.24c-1.121-1.118-19.892-16.8-45.84-16.8c-16.927,0-27.12,6.185-27.12,19.2
	c0,17.61,32.506,22.539,38.88,24.24c17.313,4.62,54.72,12.12,54.72,50.4c0,39.72-33.157,50.64-63.12,50.64
	c-37.287,0-61.601-15.038-71.52-22.08l14.64-28.56c1.44,1.439,25.843,20.88,57.36,20.88c18.24,0,27.36-5.839,27.36-17.52
	c0-14.64-20.474-19.788-25.92-21.36c-33.458-9.655-66.48-15.28-66.48-51.36c0-35.42,27.772-53.52,62.16-53.52
	c29.988,0,51.998,13.841,59.52,18.96L227.142,226.24z"/>
<path style="fill:#FFDC40;" d="M344.98,354.4c-26.647,0-39.041-16.958-43.2-24.48v73.2h-32.16V226.24h28.08v21.6
	c4.639-7.357,17.966-23.76,43.44-23.76c32.359,0,58.8,28.087,58.8,64.8C399.94,330.333,372.667,354.4,344.98,354.4z M334.181,327.04
	c18.819,0,32.88-17.54,32.88-38.16c0-23.38-17.561-37.44-34.8-37.44c-19.51,0-29.362,18.083-30.48,21.12v29.52
	C304.661,309.28,315,327.04,334.181,327.04z"/>
<g>
</g>
<g>
</g>
<g>
</g>
<g>
</g>
<g>
</g>
<g>
</g>
<g>
</g>
<g>
</g>
<g>
</g>
<g>
</g>
<g>
</g>
<g>
</g>
<g>
</g>
<g>
</g>
<g>
</g>
</svg>
