<?xml version="1.0" encoding="iso-8859-1"?>
<!-- Generator: Adobe Illustrator 19.0.0, SVG Export Plug-In . SVG Version: 6.00 Build 0)  -->
<svg version="1.1" id="Capa_1" xmlns="http://www.w3.org/2000/svg" xmlns:xlink="http://www.w3.org/1999/xlink" x="0px" y="0px"
	 viewBox="0 0 512 512" style="enable-background:new 0 0 512 512;" xml:space="preserve">
<path style="fill:#FFEA84;" d="M512,512H0V0h512V512z"/>
<path style="fill:#FFDC40;" d="M512,512H256V0h256V512z"/>
<path style="fill:#57565C;" d="M482,482H30V30h452V482z"/>
<path style="fill:#3E3D42;" d="M482,482H256V30h226V482z"/>
<rect x="176" y="241" style="fill:#FFFFFF;" width="160" height="30"/>
<g>
	<path style="fill:#FFEA84;" d="M287.819,437.195L437.195,287.82c17.546-17.545,17.546-46.094,0-63.64l-43.19-43.191l-12.426,30.001
		l34.403,34.403c2.833,2.833,4.394,6.6,4.394,10.607c0,4.007-1.561,7.773-4.394,10.607L266.606,415.982
		c-5.848,5.848-15.365,5.848-21.213,0l-59.188-59.188l-21.213,21.213l59.188,59.188c8.772,8.773,20.296,13.159,31.819,13.159
		C267.522,450.354,279.047,445.968,287.819,437.195z"/>
	<path style="fill:#FFEA84;" d="M336,301H130.411l-34.394-34.393c-2.833-2.833-4.394-6.6-4.394-10.607s1.561-7.773,4.394-10.607
		L245.394,96.018c5.848-5.848,15.365-5.848,21.213,0l58.938,58.938l21.213-21.213L287.82,74.805
		c-17.545-17.546-46.094-17.546-63.639,0L74.805,224.18c-17.546,17.545-17.546,46.094,0,63.64l43.18,43.18H336V301z"/>
</g>
<g>
	<path style="fill:#FFDC40;" d="M256,91.632c3.841,0,7.683,1.462,10.606,4.386l58.938,58.938l21.213-21.213l-58.938-58.938
		c-8.772-8.773-20.296-13.159-31.819-13.159V91.632z"/>
	<path style="fill:#FFDC40;" d="M437.195,224.18l-43.19-43.191L256,180.996v30l125.579-0.006l34.403,34.403
		c2.833,2.833,4.394,6.6,4.394,10.607s-1.561,7.773-4.394,10.607L266.606,415.982c-2.924,2.924-6.765,4.386-10.606,4.386v29.986
		c11.523,0,23.047-4.386,31.819-13.159L437.195,287.82C454.741,270.274,454.741,241.726,437.195,224.18z"/>
</g>
<rect x="256" y="241" style="fill:#E5E5E5;" width="80" height="30"/>
<rect x="176" y="301" style="fill:#FFFFFF;" width="160" height="30"/>
<rect x="256" y="301" style="fill:#E5E5E5;" width="80" height="30"/>
<rect x="176" y="181" style="fill:#FFFFFF;" width="160" height="30"/>
<rect x="256" y="181" style="fill:#E5E5E5;" width="80" height="30"/>
<g>
</g>
<g>
</g>
<g>
</g>
<g>
</g>
<g>
</g>
<g>
</g>
<g>
</g>
<g>
</g>
<g>
</g>
<g>
</g>
<g>
</g>
<g>
</g>
<g>
</g>
<g>
</g>
<g>
</g>
</svg>
