<?xml version="1.0" encoding="iso-8859-1"?>
<!-- Generator: Adobe Illustrator 19.0.0, SVG Export Plug-In . SVG Version: 6.00 Build 0)  -->
<svg version="1.1" id="Capa_1" xmlns="http://www.w3.org/2000/svg" xmlns:xlink="http://www.w3.org/1999/xlink" x="0px" y="0px"
	 viewBox="0 0 512 512" style="enable-background:new 0 0 512 512;" xml:space="preserve">
<path style="fill:#99FFEB;" d="M512,512H0V0h512V512z"/>
<path style="fill:#4DFFE5;" d="M512,512H256V0h256V512z"/>
<path style="fill:#354E72;" d="M482,482H30V30h452V482z"/>
<path style="fill:#2C4060;" d="M482,482H256V30h226V482z"/>
<path style="fill:#4DFFE5;" d="M318.82,352.72c-32.695,0-56.64-28.22-56.64-63.6c0-32.12,21.319-65.04,58.56-65.04
	c26.385,0,39.12,16.882,43.92,24.24v-22.08h28.08V346c0,36.875-29.74,59.52-69.84,59.52c-35.9,0-52.08-17.842-58.8-26.16
	l17.521-17.04c4.799,5.917,18.129,18.96,41.279,18.96c28.35,0,37.68-18.655,37.68-35.28v-15.84
	C356.418,337.36,345,352.72,318.82,352.72z M329.621,327.04c20.254,0,29.838-18.24,30.959-21.12v-30
	c-2.879-7.357-13.705-24.48-32.879-24.48c-17.076,0-32.641,15.72-32.641,38.64C295.061,310.75,310.875,327.04,329.621,327.04z"/>
<path style="fill:#99FFEB;" d="M227.142,226.24c-1.121-1.118-19.892-16.8-45.84-16.8c-16.927,0-27.12,6.185-27.12,19.2
	c0,17.61,32.506,22.539,38.88,24.24c17.313,4.62,54.72,12.12,54.72,50.4c0,39.72-33.157,50.64-63.12,50.64
	c-37.287,0-61.601-15.038-71.52-22.08l14.64-28.56c1.44,1.439,25.843,20.88,57.36,20.88c18.24,0,27.36-5.839,27.36-17.52
	c0-14.64-20.474-19.788-25.92-21.36c-33.458-9.655-66.48-15.28-66.48-51.36c0-35.42,27.772-53.52,62.16-53.52
	c29.988,0,51.998,13.841,59.52,18.96L227.142,226.24z"/>
<g>
</g>
<g>
</g>
<g>
</g>
<g>
</g>
<g>
</g>
<g>
</g>
<g>
</g>
<g>
</g>
<g>
</g>
<g>
</g>
<g>
</g>
<g>
</g>
<g>
</g>
<g>
</g>
<g>
</g>
</svg>
