<?xml version="1.0" encoding="iso-8859-1"?>
<!-- Generator: Adobe Illustrator 19.0.0, SVG Export Plug-In . SVG Version: 6.00 Build 0)  -->
<svg version="1.1" id="Capa_1" xmlns="http://www.w3.org/2000/svg" xmlns:xlink="http://www.w3.org/1999/xlink" x="0px" y="0px"
	 viewBox="0 0 512 512" style="enable-background:new 0 0 512 512;" xml:space="preserve">
<path style="fill:#FF5F96;" d="M512,512H0V0h512V512z"/>
<path style="fill:#FF468C;" d="M512,512H256V0h256V512z"/>
<path style="fill:#7F1D32;" d="M482,482H30V30h452V482z"/>
<path style="fill:#66192D;" d="M482,482H256V30h226V482z"/>
<path style="fill:#FF5F96;" d="M252.362,226.24c-1.121-1.118-19.892-16.8-45.84-16.8c-16.927,0-27.12,6.185-27.12,19.2
	c0,17.61,32.506,22.539,38.88,24.24c17.313,4.62,54.72,12.12,54.72,50.4c0,39.72-33.157,50.64-63.12,50.64
	c-37.287,0-61.601-15.038-71.52-22.08l14.64-28.56c1.44,1.439,25.843,20.88,57.36,20.88c18.24,0,27.36-5.839,27.36-17.52
	c0-14.64-20.474-19.788-25.92-21.36c-33.458-9.655-66.48-15.28-66.48-51.36c0-35.42,27.772-53.52,62.16-53.52
	c29.988,0,51.998,13.841,59.52,18.96L252.362,226.24z"/>
<g>
	<path style="fill:#FF468C;" d="M368.761,345.52c-4.319,1.92-18.594,8.64-35.521,8.64c-24.074,0-32.64-13.993-32.64-30.96v-72.24
		h-16.56v-24.72h16.56v-40.8h32.16v40.8h26.399v24.72H332.76v61.44c0,8.933,6.239,12.24,12,12.24c6.823,0,15.601-3.758,17.521-4.56
		L368.761,345.52z"/>
	<path style="fill:#FF468C;" d="M256,192.746v26.815l11.002-20.2C264.667,197.771,260.933,195.341,256,192.746z"/>
	<path style="fill:#FF468C;" d="M256,268.13v73.013c10.205-7.836,17.002-19.895,17.002-37.863
		C273.002,286.338,265.67,275.432,256,268.13z"/>
</g>
<g>
</g>
<g>
</g>
<g>
</g>
<g>
</g>
<g>
</g>
<g>
</g>
<g>
</g>
<g>
</g>
<g>
</g>
<g>
</g>
<g>
</g>
<g>
</g>
<g>
</g>
<g>
</g>
<g>
</g>
</svg>
