<?xml version="1.0" encoding="iso-8859-1"?>
<!-- Generator: Adobe Illustrator 19.0.0, SVG Export Plug-In . SVG Version: 6.00 Build 0)  -->
<svg version="1.1" id="Capa_1" xmlns="http://www.w3.org/2000/svg" xmlns:xlink="http://www.w3.org/1999/xlink" x="0px" y="0px"
	 viewBox="0 0 512 512" style="enable-background:new 0 0 512 512;" xml:space="preserve">
<path style="fill:#FFEA84;" d="M512,512H0V0h512V512z"/>
<path style="fill:#FFDC40;" d="M512,512H256V0h256V512z"/>
<path style="fill:#57565C;" d="M482,482H30V30h452V482z"/>
<path style="fill:#3E3D42;" d="M482,482H256V30h226V482z"/>
<g>
	<path style="fill:#FFEA84;" d="M176,166v70h60v-60h-30v-10c0-16.542,13.458-30,30-30v-30C202.916,106,176,132.916,176,166z"/>
	<path style="fill:#FFEA84;" d="M146,176h-30v-10c0-16.542,13.458-30,30-30v-30c-33.084,0-60,26.916-60,60v70h60V176z"/>
</g>
<g>
	<path style="fill:#FFDC40;" d="M276,336h30v10c0,16.542-13.458,30-30,30v30c33.084,0,60-26.916,60-60v-70h-60V336z"/>
	<path style="fill:#FFDC40;" d="M366,276v60h30v10c0,16.542-13.458,30-30,30v30c33.084,0,60-26.916,60-60v-70H366z"/>
	<path style="fill:#FFDC40;" d="M276,166v30c22.056,0,40,17.944,40,40h30C346,197.402,314.598,166,276,166z"/>
	<path style="fill:#FFDC40;" d="M406,236c0-71.682-58.318-130-130-130v30c55.14,0,100,44.86,100,100H406z"/>
</g>
<g>
	<path style="fill:#FFEA84;" d="M196,276h-30c0,38.598,31.402,70,70,70v-30C213.944,316,196,298.056,196,276z"/>
	<path style="fill:#FFEA84;" d="M136,276h-30c0,71.682,58.318,130,130,130v-30C180.86,376,136,331.14,136,276z"/>
</g>
<g>
</g>
<g>
</g>
<g>
</g>
<g>
</g>
<g>
</g>
<g>
</g>
<g>
</g>
<g>
</g>
<g>
</g>
<g>
</g>
<g>
</g>
<g>
</g>
<g>
</g>
<g>
</g>
<g>
</g>
</svg>
