<svg xmlns="http://www.w3.org/2000/svg" viewBox="0 0 165 65.264">
    <path d="M89.86 14.305c17.365 0 25.705 13.73 25.705 25.477 0 11.748-8.34 25.482-25.706 25.482-17.373 0-25.71-13.734-25.71-25.482 0-11.746 8.337-25.477 25.708-25.477m0 37.573c6.186 0 11.432-5.1 11.432-12.096 0-6.997-5.246-12.09-11.433-12.09-6.19 0-11.44 5.093-11.44 12.09 0 6.996 5.25 12.096 11.44 12.096M123.634 0H138.1v63.925h-14.466zm31.748 45.15c-5.306 0-9.604 4.31-9.604 9.61 0 5.305 4.3 9.61 9.604 9.61 5.308 0 9.618-4.306 9.618-9.61 0-5.3-4.31-9.61-9.618-9.61M38.058 0h-12.88L0 63.923h17.062l3.375-9.238h22.2l3.108 9.238h17.237L38.058 0zm-13.13 41.718l6.697-22.287 6.693 22.29h-13.39z"/>
</svg>