<?xml version="1.0" encoding="UTF-8" standalone="no"?>
<svg width="341px" height="186px" viewBox="0 0 341 186" version="1.1" xmlns="http://www.w3.org/2000/svg" xmlns:xlink="http://www.w3.org/1999/xlink">
    <!-- Generator: Sketch 3.8.2 (29753) - http://www.bohemiancoding.com/sketch -->
    <title>sample-selfie-card</title>
    <desc>Created with Sketch.</desc>
    <defs>
        <rect id="path-1" x="0.701171875" y="0" width="340" height="186" rx="10"></rect>
        <mask id="mask-2" maskContentUnits="userSpaceOnUse" maskUnits="objectBoundingBox" x="0" y="0" width="340" height="186" fill="white">
            <use xlink:href="#path-1"></use>
        </mask>
        <mask id="mask-4" maskContentUnits="userSpaceOnUse" maskUnits="objectBoundingBox" x="0" y="0" width="340" height="186" fill="white">
            <use xlink:href="#path-1"></use>
        </mask>
        <polygon id="path-5" points="167.105121 56.7714506 0.414348307 56.7714506 0.414348307 0.0762115031 167.105121 0.0762115031"></polygon>
        <polygon id="path-7" points="167.105121 56.7714506 0.414348307 56.7714506 0.414348307 0.0762115031 167.105121 0.0762115031"></polygon>
        <polygon id="path-9" points="0.440605138 26.7318801 39.0196454 26.7318801 39.0196454 0.683010828 0.440605138 0.683010828"></polygon>
        <polygon id="path-11" points="0.440605138 26.7318801 39.0196454 26.7318801 39.0196454 0.683010828 0.440605138 0.683010828"></polygon>
        <rect id="path-13" x="0.701171875" y="0" width="340" height="186" rx="10"></rect>
        <mask id="mask-14" maskContentUnits="userSpaceOnUse" maskUnits="objectBoundingBox" x="0" y="0" width="340" height="186" fill="white">
            <use xlink:href="#path-13"></use>
        </mask>
        <mask id="mask-16" maskContentUnits="userSpaceOnUse" maskUnits="objectBoundingBox" x="0" y="0" width="340" height="186" fill="white">
            <use xlink:href="#path-13"></use>
        </mask>
    </defs>
    <g id="Actual" stroke="none" stroke-width="1" fill="none" fill-rule="evenodd">
        <g id="Artboard-1-Copy-2" transform="translate(-826.000000, -349.000000)">
            <g id="sample-selfie-card" transform="translate(826.000000, 349.000000)">
                <g id="Page-1">
                    <mask id="mask-3" fill="white">
                        <use xlink:href="#path-1"></use>
                    </mask>
                    <g id="Mask" stroke="#A5CFE3" mask="url(#mask-2)" stroke-width="4" fill="#FFFFFF">
                        <use mask="url(#mask-4)" xlink:href="#path-1"></use>
                    </g>
                    <g opacity="0.795629529" mask="url(#mask-3)">
                        <g transform="translate(79.627397, 10.850000)">
                            <path d="M114.486431,26.9004288 L114.486431,48.4499266 L118.264313,48.4499266 C119.843047,39.6194055 120.264042,33.6226171 120.251855,26.324114 C118.344081,26.5666558 116.421903,26.7591315 114.486431,26.9004288 L114.486431,26.9004288 Z" id="Fill-1" stroke="none" fill="#8FC3DC" fill-rule="evenodd"></path>
                            <path d="M114.486431,26.9004288 L114.486431,48.4499266 L118.264313,48.4499266 C119.843047,39.6194055 120.264042,33.6226171 120.251855,26.324114 C118.344081,26.5666558 116.421903,26.7591315 114.486431,26.9004288 L114.486431,26.9004288 Z" id="Stroke-3" stroke="#8FC3DC" stroke-width="2" fill="none"></path>
                            <path d="M137.263623,133.843636 L109.267415,118.860566 C107.191242,117.750215 105.77426,115.640769 105.477347,113.224253 L103.469863,96.835998 L59.0913864,96.835998 L57.7630345,113.506847 C57.5824495,115.774278 56.3183548,117.792492 54.401717,118.871692 L27.8269233,133.843636 L137.263623,133.843636 Z" id="Fill-5" stroke="none" fill="#FFFFFF" fill-rule="evenodd"></path>
                            <path d="M137.263623,133.843636 L109.267415,118.860566 C107.191242,117.750215 105.77426,115.640769 105.477347,113.224253 L103.469863,96.835998 L59.0913864,96.835998 L57.7630345,113.506847 C57.5824495,115.774278 56.3183548,117.792492 54.401717,118.871692 L27.8269233,133.843636 L137.263623,133.843636 L137.263623,133.843636 Z" id="Stroke-7" stroke="#8FC3DC" stroke-width="2" fill="none"></path>
                            <path d="M103.702297,104.788919 L103.569351,99.2727635 L59.1897665,98.3871524 L59.1022437,104.814508 C65.1623646,108.320237 73.1601733,110.310637 81.3795585,110.310637 C89.6199936,110.310637 97.6366362,108.310224 103.702297,104.788919" id="Fill-9" stroke="none" fill="#76C5EC" fill-rule="evenodd" opacity="0.200000003"></path>
                            <path d="M81.2805138,103.442478 C72.3277099,103.442478 63.6319348,101.086041 57.4233575,96.9761827 C50.4448014,92.3578768 47.9720062,85.9271836 47.9720062,77.8643403 L46.9073304,14.9915192 L81.2805138,13.6408511 L115.653697,14.9915192 L114.589021,77.8643403 C114.589021,85.9271836 112.116226,92.3578768 105.138778,96.9761827 C98.9302006,101.086041 90.2344256,103.442478 81.2805138,103.442478" id="Fill-11" stroke="none" fill="#FFFFFF" fill-rule="evenodd"></path>
                            <path d="M81.2805138,103.442478 C72.3277099,103.442478 63.6319348,101.086041 57.4233575,96.9761827 C50.4448014,92.3578768 47.9720062,85.9271836 47.9720062,77.8643403 L46.9073304,14.9915192 L81.2805138,13.6408511 L115.653697,14.9915192 L114.589021,77.8643403 C114.589021,85.9271836 112.116226,92.3578768 105.138778,96.9761827 C98.9302006,101.086041 90.2344256,103.442478 81.2805138,103.442478 L81.2805138,103.442478 Z" id="Stroke-13" stroke="#8FC3DC" stroke-width="2" fill="none"></path>
                            <path d="M116.110034,23.033446 C113.099916,12.7165224 109.662154,8.00253494 99.3688116,7.19814199 C93.4793046,6.73753525 87.5288641,6.50166899 81.5263531,6.50166899 C73.64598,6.50166899 68.4001532,6.90553433 60.7180913,7.6943512 C51.1825408,8.67341868 43.1038567,17.0322073 43.1038567,27.0442849 C43.1038567,37.1231171 44.239437,49.5094334 44.239437,49.5094334 L49.5329028,45.9647641 C54.4452568,37.788438 55.7869033,34.350576 59.2091544,24.5843779 C73.8863907,33.9366975 98.397198,39.580799 116.398084,35.3574579 C116.398084,35.3574579 117.461652,27.6651027 116.110034,23.033446" id="Fill-15" stroke="none" fill="#76C5EC" fill-rule="evenodd" opacity="0.208722015"></path>
                            <path d="M120.957355,19.6740207 C117.947237,9.35709706 109.178342,2.02855442 98.884999,1.2230489 C92.995492,0.762442147 87.0450515,0.527688466 81.0425405,0.527688466 C73.1621675,0.527688466 67.9163406,0.931553804 60.2342787,1.72037067 C50.6987282,2.69943816 42.6189362,11.0582268 42.6189362,21.0703044 C42.6189362,31.1491366 41.7281982,41.2101676 43.3290894,51.1488152 L43.5096743,52.2725176 C43.5251847,52.2702925 43.5395872,52.2680673 43.5550975,52.2669547 C43.5628527,52.255829 43.7556244,52.255829 43.7556244,52.255829 L47.4836513,52.255829 L47.4836513,46.3836492 C52.3948974,38.2084357 55.8271194,28.9629234 57.3859111,19.0587658 C72.0631474,28.4110854 89.307349,33.8004069 107.756927,33.8004069 C113.310746,33.8004069 118.754884,33.3097606 124.052781,32.3718584 C123.219653,28.1407293 122.308973,24.3056774 120.957355,19.6740207" id="Fill-17" stroke="none" fill="#8FC3DC" fill-rule="evenodd"></path>
                            <path d="M120.957355,19.6740207 C117.947237,9.35709706 109.178342,2.02855442 98.884999,1.2230489 C92.995492,0.762442147 87.0450515,0.527688466 81.0425405,0.527688466 C73.1621675,0.527688466 67.9163406,0.931553804 60.2342787,1.72037067 C50.6987282,2.69943816 42.6189362,11.0582268 42.6189362,21.0703044 C42.6189362,31.1491366 41.7281982,41.2101676 43.3290894,51.1488152 L43.5096743,52.2725176 C43.5251847,52.2702925 43.5395872,52.2680673 43.5550975,52.2669547 C43.5628527,52.255829 43.7556244,52.255829 43.7556244,52.255829 L47.4836513,52.255829 L47.4836513,46.3836492 C52.3948974,38.2084357 55.8271194,28.9629234 57.3859111,19.0587658 C72.0631474,28.4110854 89.307349,33.8004069 107.756927,33.8004069 C113.310746,33.8004069 118.754884,33.3097606 124.052781,32.3718584 C123.219653,28.1407293 122.308973,24.3056774 120.957355,19.6740207 L120.957355,19.6740207 Z" id="Stroke-19" stroke="#8FC3DC" stroke-width="2" fill="none"></path>
                            <path d="M45.8713139,48.4659477 L44.3512982,48.4659477 C43.9535681,48.4659477 43.6289583,48.9054155 43.6289583,49.4450152 L43.6289583,61.5309358 C43.6289583,63.4901833 44.5695512,65.1579358 45.8713139,65.748714 L47.1996896,65.7487147 L47.3266334,57.1073312 L47.4535772,48.4659477 L45.8713139,48.4659477 Z" id="Fill-21" stroke="none" fill="#DFF6FF" fill-rule="evenodd"></path>
                            <path d="M45.7538632,48.4659477 L44.3134633,48.4659477 C43.9365656,48.4659477 43.6289583,48.9054155 43.6289583,49.4450152 L43.6289583,61.5309358 C43.6289583,63.4901833 44.5202846,65.1579358 45.7538632,65.748714 L47.4535772,65.748714 L47.4535772,48.4659477 L45.7538632,48.4659477 L45.7538632,48.4659477 Z" id="Stroke-23" stroke="#8FC3DC" stroke-width="2" fill="none"></path>
                            <path d="M117.381219,48.4659477 L118.843625,48.4659477 C119.228061,48.4659477 119.540484,48.9054155 119.540484,49.4450152 L119.540484,61.5309358 C119.540484,63.4901833 118.634235,65.1579358 117.381219,65.748714 L115.65403,65.748714 L115.65403,48.4659477 L117.381219,48.4659477 Z" id="Fill-25" stroke="none" fill="#DFF6FF" fill-rule="evenodd"></path>
                            <path d="M118.044205,48.4659477 C118.443435,48.4659477 118.767881,48.9054155 118.767881,49.4450152 L118.767881,61.5309358 C118.767881,63.4901833 117.826757,65.1579358 116.525521,65.748714 L114.869768,65.7487147 L115.082913,48.4659477 L116.525521,48.4659477 L118.044205,48.4659477 Z" id="Stroke-27" stroke="#8FC3DC" stroke-width="2" fill="none"></path>
                            <path d="M72.4428189,54.44716 C72.9059141,58.5714818 69.7672811,59.5104965 65.8210012,59.9944674 C61.8736134,60.4784382 58.6131133,60.3226775 58.1500181,56.1983557 C57.6880308,52.0740339 60.512025,48.339114 64.4583049,47.8551431 C68.4056926,47.3722848 71.9797238,50.3228382 72.4428189,54.44716 L72.4428189,54.44716 Z" id="Stroke-29" stroke="#8FC3DC" stroke-width="2" fill="none"></path>
                            <path d="M90.4651977,54.44716 C90.0021025,58.5714818 93.1407355,59.5104965 97.0870154,59.9944674 C101.034403,60.4784382 104.294903,60.3226775 104.757998,56.1983557 C105.219986,52.0740339 102.395992,48.339114 98.4497117,47.8551431 C94.5023239,47.3722848 90.9282928,50.3228382 90.4651977,54.44716 L90.4651977,54.44716 Z" id="Stroke-31" stroke="#8FC3DC" stroke-width="2" fill="none"></path>
                            <path d="M57.4393346,46.4454012 C59.5155861,43.929292 62.6796877,42.8142179 69.0747433,42.8142179 C70.3548334,42.8142179 71.3925515,41.77328 71.3925515,40.4892179 C71.3925515,39.2051559 70.3548334,38.1642179 69.0747433,38.1642179 C61.4238241,38.1642179 56.9558487,39.7387955 53.8683584,43.4803763 C53.0521221,44.4695339 53.189822,45.9351479 54.1759198,46.7539169 C55.1620177,47.5726859 56.6230982,47.4345588 57.4393346,46.4454012 L57.4393346,46.4454012 Z" id="Stroke-33" stroke="none" fill="#8FC3DC" fill-rule="evenodd"></path>
                            <path d="M108.593292,43.4803763 C105.505802,39.7387955 101.037826,38.1642179 93.3869072,38.1642179 C92.106817,38.1642179 91.069099,39.2051559 91.069099,40.4892179 C91.069099,41.77328 92.106817,42.8142179 93.3869072,42.8142179 C99.7819628,42.8142179 102.946064,43.929292 105.022316,46.4454012 C105.838552,47.4345588 107.299633,47.5726859 108.285731,46.7539169 C109.271828,45.9351479 109.409528,44.4695339 108.593292,43.4803763 L108.593292,43.4803763 Z" id="Stroke-35" stroke="none" fill="#8FC3DC" fill-rule="evenodd"></path>
                            <path d="M97.6497093,80.9293779 C97.6497093,86.6713861 90.3210621,91.326407 81.2807354,91.326407 C72.2404087,91.326407 64.9117615,86.6713861 64.9117615,80.9293779 L97.6497093,80.9293779 Z" id="Fill-37" stroke="none" fill="#8FC3DC" fill-rule="evenodd"></path>
                            <path d="M75.332843,70.5313474 C78.0172439,70.5313474 76.8174064,66.1088551 81.8970508,66.1088551 C86.7418239,66.1088551 85.9674136,70.5313474 88.3958935,70.5313474" id="Stroke-39" stroke="#8FC3DC" stroke-width="2" stroke-linecap="round" stroke-linejoin="round" fill="none"></path>
                            <path d="M99.1194271,53.9950088 C99.1194271,54.8639312 98.4447262,55.5681923 97.6138138,55.5681923 C96.7817936,55.5681923 96.1082006,54.8639312 96.1082006,53.9950088 C96.1082006,53.1260864 96.7817936,52.4218254 97.6138138,52.4218254 C98.4447262,52.4218254 99.1194271,53.1260864 99.1194271,53.9950088" id="Fill-41" stroke="none" fill="#8FC3DC" fill-rule="evenodd"></path>
                            <path d="M99.1194271,53.9950088 C99.1194271,54.8639312 98.4447262,55.5681923 97.6138138,55.5681923 C96.7817936,55.5681923 96.1082006,54.8639312 96.1082006,53.9950088 C96.1082006,53.1260864 96.7817936,52.4218254 97.6138138,52.4218254 C98.4447262,52.4218254 99.1194271,53.1260864 99.1194271,53.9950088 L99.1194271,53.9950088 Z" id="Stroke-43" stroke="#8FC3DC" stroke-width="2" fill="none"></path>
                            <path d="M66.8002591,53.9950088 C66.8002591,54.8639312 66.1255583,55.5681923 65.2946459,55.5681923 C64.4626256,55.5681923 63.7890327,54.8639312 63.7890327,53.9950088 C63.7890327,53.1260864 64.4626256,52.4218254 65.2946459,52.4218254 C66.1255583,52.4218254 66.8002591,53.1260864 66.8002591,53.9950088" id="Fill-45" stroke="none" fill="#8FC3DC" fill-rule="evenodd"></path>
                            <path d="M66.8002591,53.9950088 C66.8002591,54.8639312 66.1255583,55.5681923 65.2946459,55.5681923 C64.4626256,55.5681923 63.7890327,54.8639312 63.7890327,53.9950088 C63.7890327,53.1260864 64.4626256,52.4218254 65.2946459,52.4218254 C66.1255583,52.4218254 66.8002591,53.1260864 66.8002591,53.9950088 L66.8002591,53.9950088 Z" id="Stroke-47" stroke="#8FC3DC" stroke-width="2" fill="none"></path>
                            <path d="M94.70695,83.7508723 C94.70695,83.7508723 88.8916712,84.9324288 81.2805138,84.9324288 C73.6693564,84.9324288 67.8983929,83.2936033 67.8983929,83.2936033 L67.4984471,82.9064266 L95.0625805,82.9064266 L94.70695,83.7508723 Z" id="Fill-49" stroke="none" fill="#FFFFFF" fill-rule="evenodd"></path>
                            <g id="Group-53" stroke="none" stroke-width="1" fill="none" fill-rule="evenodd" transform="translate(0.000000, 118.923427)">
                                <mask id="mask-6" fill="white">
                                    <use xlink:href="#path-5"></use>
                                </mask>
                                <g id="Clip-52"></g>
                                <path d="M140.833887,11.965206 L115.622898,0.0762115031 C115.622898,0.0762115031 107.04899,10.4120489 82.3431953,10.4120489 C63.2576919,10.4120489 53.5315855,4.24392377 50.0949319,1.43800537 C49.1133474,0.636950153 47.7539748,0.486752301 46.6084236,1.0308023 L23.9433496,11.8061075 C19.1329208,14.0935652 15.4724748,18.2223373 13.8084343,23.2411707 L-0.680461845,66.9175937 L167.105121,67.2680554 L150.829209,22.8617821 C149.073215,18.0721394 145.482565,14.1569821 140.833887,11.965206" id="Fill-51" fill="#ADE8EE" mask="url(#mask-6)"></path>
                            </g>
                            <g id="Group-56" stroke="none" stroke-width="1" fill="none" fill-rule="evenodd" transform="translate(0.000000, 118.923427)">
                                <mask id="mask-8" fill="white">
                                    <use xlink:href="#path-7"></use>
                                </mask>
                                <g id="Clip-55"></g>
                                <path d="M140.833887,11.965206 L115.622898,0.0762115031 C115.622898,0.0762115031 107.04899,10.4120489 82.3431953,10.4120489 C63.2576919,10.4120489 53.5315855,4.24392377 50.0949319,1.43800537 C49.1133474,0.636950153 47.7539748,0.486752301 46.6084236,1.0308023 L23.9433496,11.8061075 C19.1329208,14.0935652 15.4724748,18.2223373 13.8084343,23.2411707 L-0.680461845,66.9175937 L167.105121,67.2680554 L150.829209,22.8617821 C149.073215,18.0721394 145.482565,14.1569821 140.833887,11.965206 L140.833887,11.965206 Z" id="Stroke-54" stroke="#8FC3DC" stroke-width="2" mask="url(#mask-8)"></path>
                            </g>
                            <path d="M81.4163403,134.476247 C53.2196056,134.476247 42.9240473,122.712974 42.9240473,122.712974" id="Stroke-57" stroke="#8FC3DC" stroke-width="2" stroke-linecap="round" stroke-linejoin="round" stroke-dasharray="1,5" fill="none"></path>
                            <path d="M119.397124,122.713308 C119.397124,122.713308 109.612299,134.476581 81.4166726,134.476581" id="Stroke-59" stroke="#8FC3DC" stroke-width="2" stroke-linecap="round" stroke-linejoin="round" stroke-dasharray="1,5" fill="none"></path>
                            <g id="Group-64" stroke="none" stroke-width="1" fill="none" fill-rule="evenodd" transform="translate(29.912846, 166.764224)">
                                <path d="M0.302452106,19.1350952 C0.97050566,16.9933851 4.91900129,2.5599277 5.58594696,0.417105 C4.0360184,3.18185807 4.93118801,7.14485623 7.50036909,8.8927142" id="Fill-61" fill="#8FC3DC"></path>
                                <path d="M0.302452106,19.1350952 C0.97050566,16.9933851 4.65134629,3.40979964 5.31829196,1.26697694 C4.65134633,4.16787421 5.4232293,7.56277143 7.99241038,9.31062941" id="Stroke-63" stroke="#8FC3DC" stroke-width="2" stroke-linecap="round" stroke-linejoin="round"></path>
                            </g>
                            <g id="Group-68" stroke="none" stroke-width="1" fill="none" fill-rule="evenodd" transform="translate(124.855518, 166.764224)">
                                <path d="M8.70899383,19.1350952 C8.04094027,16.9933851 2.59126294,2.5599277 1.92320939,0.417105 C3.47424583,3.18185807 2.57907623,7.14485623 0.00878726286,8.8927142" id="Fill-65" fill="#8FC3DC"></path>
                                <path d="M8.70899383,19.1350952 C8.04094027,16.9933851 2.59126294,2.5599277 1.92320939,0.417105 C3.47424583,3.18185807 2.57907623,7.14485623 0.00878726286,8.8927142" id="Stroke-67" stroke="#8FC3DC" stroke-width="2" stroke-linecap="round" stroke-linejoin="round"></path>
                            </g>
                            <path d="M140.073215,150.065116 C142.932661,150.065116 150.120607,146.279017 152.659876,145.614809 C155.199144,144.950601 160.179079,143.78462 161.532912,141.442646 C163.041849,138.831429 162.553272,135.205541 162.547733,134.836166 C162.498986,131.764342 161.384456,132.030248 161.335709,128.958423 C161.323522,128.196308 161.302472,127.397478 160.94241,126.73327 C160.582348,126.070174 159.763623,125.611793 159.104432,125.93889 C150.110636,125.514999 141.100223,115.742125 132.106427,115.318233 C128.97001,115.17026 125.626418,116.187156 122.929831,117.869372 C119.94187,119.732937 118.380862,122.486565 118.703256,126.106889 C119.026758,129.728326 121.036458,133.040467 123.726399,135.346839 C126.416339,137.65321 130.954229,150.068453 140.073215,150.065116" id="Fill-69" stroke="none" fill="#FFFFFF" fill-rule="evenodd"></path>
                            <path d="M140.073215,150.065116 C142.932661,150.065116 150.120607,146.279017 152.659876,145.614809 C155.199144,144.950601 160.179079,143.78462 161.532912,141.442646 C163.041849,138.831429 162.553272,135.205541 162.547733,134.836166 C162.498986,131.764342 161.384456,132.030248 161.335709,128.958423 C161.323522,128.196308 161.302472,127.397478 160.94241,126.73327 C160.582348,126.070174 159.763623,125.611793 159.104432,125.93889 C150.110636,125.514999 141.100223,115.742125 132.106427,115.318233 C128.97001,115.17026 125.626418,116.187156 122.929831,117.869372 C119.94187,119.732937 118.380862,122.486565 118.703256,126.106889 C119.026758,129.728326 121.036458,133.040467 123.726399,135.346839 C126.416339,137.65321 130.954229,150.068453 140.073215,150.065116 L140.073215,150.065116 Z" id="Stroke-71" stroke="#8FC3DC" stroke-width="2" fill="none"></path>
                            <path d="M161.594178,136.939158 L110.085366,136.939158 C107.855197,136.939158 106.048239,135.124546 106.048239,132.884929 L106.048239,103.443925 C106.048239,101.20542 107.855197,99.3896953 110.085366,99.3896953 L161.594178,99.3896953 C163.823239,99.3896953 165.631304,101.20542 165.631304,103.443925 L165.631304,132.884929 C165.631304,135.124546 163.823239,136.939158 161.594178,136.939158" id="Fill-73" stroke="none" fill="#FFFFFF" fill-rule="evenodd"></path>
                            <path d="M161.594178,136.939158 L110.085366,136.939158 C107.855197,136.939158 106.048239,135.124546 106.048239,132.884929 L106.048239,103.443925 C106.048239,101.20542 107.855197,99.3896953 110.085366,99.3896953 L161.594178,99.3896953 C163.823239,99.3896953 165.631304,101.20542 165.631304,103.443925 L165.631304,132.884929 C165.631304,135.124546 163.823239,136.939158 161.594178,136.939158 L161.594178,136.939158 Z" id="Stroke-75" stroke="#8FC3DC" stroke-width="2" fill="none"></path>
                            <path d="M155.543363,99.390029 L149.088836,99.390029 C146.499713,99.390029 143.939395,99.3466386 143.663532,96.2737017 C143.387669,93.1996524 145.548041,90.4749521 148.489471,90.1867947 C151.430901,89.8986373 155.290766,96.3148671 155.543363,99.390029" id="Fill-77" stroke="none" fill="#FFFFFF" fill-rule="evenodd"></path>
                            <path d="M156.380281,99.0677638 L149.925753,99.0677638 C147.33663,99.0677638 144.776312,99.0282348 144.500449,96.2287686 C144.224586,93.4282889 146.384959,90.9460686 149.326388,90.6835553 C152.267818,90.421042 156.127683,96.2662705 156.380281,99.0677638 L156.380281,99.0677638 Z" id="Stroke-79" stroke="#8FC3DC" stroke-width="2" fill="none"></path>
                            <path d="M144.413091,94.9621963 C144.826331,98.0184445 142.472079,98.4946273 139.547268,98.9263071 C136.622456,99.3590994 134.23386,99.5838399 133.82062,96.5275917 C133.407379,93.4713436 135.442561,90.6431737 138.367372,90.2103813 C141.293292,89.7787016 143.99985,91.9059482 144.413091,94.9621963" id="Fill-81" stroke="none" fill="#FFFFFF" fill-rule="evenodd"></path>
                            <path d="M144.413091,95.3093655 C144.826331,98.0936282 142.472079,98.5274339 139.547268,98.9206971 C136.622456,99.3149738 134.23386,99.5197139 133.82062,96.7354513 C133.407379,93.9511886 135.442561,91.3747068 138.367372,90.98043 C141.293292,90.5871669 143.99985,92.5251029 144.413091,95.3093655 L144.413091,95.3093655 Z" id="Stroke-83" stroke="#8FC3DC" stroke-width="2" fill="none"></path>
                            <path d="M133.690222,95.2411193 C133.960545,98.3151687 131.586352,98.6700807 128.644922,98.9515626 C125.702384,99.2341571 123.307141,99.3365141 123.036817,96.2624647 C122.767602,93.1884153 124.933513,90.4681653 127.874943,90.1855709 C130.816373,89.904089 133.419898,92.1670699 133.690222,95.2411193" id="Fill-85" stroke="none" fill="#FFFFFF" fill-rule="evenodd"></path>
                            <path d="M133.690222,95.3021897 C133.960545,98.1026694 131.586352,98.4259966 128.644922,98.6824285 C125.702384,98.9398739 123.307141,99.0331219 123.036817,96.2326422 C122.767602,93.4321625 124.933513,90.9539964 127.874943,90.696551 C130.816373,90.4401191 133.419898,92.50171 133.690222,95.3021897 L133.690222,95.3021897 Z" id="Stroke-87" stroke="#8FC3DC" stroke-width="2" fill="none"></path>
                            <g id="Group-92" stroke="none" stroke-width="1" fill="none" fill-rule="evenodd" transform="translate(106.356785, 133.386924)">
                                <path d="M39.4711078,9.13125064 C39.4711078,13.706166 36.8088645,17.4666752 25.4297964,18.1052942 C20.1950484,18.3990144 11.1491823,9.00886721 3.46933616,7.17534083 C-1.1882047,6.06276414 0.769424864,0.707932546 3.66986301,0.221736534 C7.49759938,-0.421332791 19.5103766,3.96778224 24.3651207,5.15823929" id="Fill-89" fill="#FFFFFF"></path>
                                <path d="M39.4711078,9.13125064 C39.4711078,13.706166 36.8088645,17.4666752 25.4297964,18.1052942 C20.1950484,18.3990144 11.1491823,9.00886721 3.46933616,7.17534083 C-1.1882047,6.06276414 0.769424864,0.707932546 3.66986301,0.221736534 C7.49759938,-0.421332791 19.5103766,3.96778224 24.3651207,5.15823929" id="Stroke-91" stroke="#8FC3DC" stroke-width="2" stroke-linecap="round" stroke-linejoin="round"></path>
                            </g>
                            <g id="Group-95" stroke="none" stroke-width="1" fill="none" fill-rule="evenodd" transform="translate(136.269630, 148.962997)">
                                <mask id="mask-10" fill="white">
                                    <use xlink:href="#path-9"></use>
                                </mask>
                                <g id="Clip-94"></g>
                                <path d="M27.6435686,55.9891979 L27.6435686,55.9891979 C17.9706406,58.9786915 7.90219831,52.769401 5.73074729,42.4769541 L0.440605138,8.1484004 L24.5935662,0.683010828 L38.7711472,31.601517 C42.7307217,41.5702041 37.549152,52.9273869 27.6435686,55.9891979" id="Fill-93" fill="#ADE8EE" mask="url(#mask-10)"></path>
                            </g>
                            <g id="Group-98" stroke="none" stroke-width="1" fill="none" fill-rule="evenodd" transform="translate(136.269630, 148.962997)">
                                <mask id="mask-12" fill="white">
                                    <use xlink:href="#path-11"></use>
                                </mask>
                                <g id="Clip-97"></g>
                                <path d="M27.6435686,55.9891979 L27.6435686,55.9891979 C17.9706406,58.9786915 7.90219831,52.769401 5.73074729,42.4769541 L0.440605138,8.1484004 L24.5935662,0.683010828 L38.7711472,31.601517 C42.7307217,41.5702041 37.549152,52.9273869 27.6435686,55.9891979 L27.6435686,55.9891979 Z" id="Stroke-96" stroke="#8FC3DC" stroke-width="2" mask="url(#mask-12)"></path>
                            </g>
                            <path d="M163.651517,158.013697 L138.947938,165.649311 C137.422383,166.121044 135.809305,165.240995 135.372799,163.698964 L132.846825,154.776099 C132.423614,153.280796 133.267821,151.718738 134.747953,151.261469 L159.450424,143.625856 C160.975979,143.155236 162.590165,144.035284 163.026671,145.577315 L165.552645,154.50018 C165.975856,155.995483 165.131649,157.556428 163.651517,158.013697" id="Fill-99" stroke="none" fill="#ADE8EE" fill-rule="evenodd"></path>
                            <path d="M163.651517,158.013697 L138.947938,165.649311 C137.422383,166.121044 135.809305,165.240995 135.372799,163.698964 L132.846825,154.776099 C132.423614,153.280796 133.267821,151.718738 134.747953,151.261469 L159.450424,143.625856 C160.975979,143.155236 162.590165,144.035284 163.026671,145.577315 L165.552645,154.50018 C165.975856,155.995483 165.131649,157.556428 163.651517,158.013697 L163.651517,158.013697 Z" id="Stroke-101" stroke="#8FC3DC" stroke-width="2" fill="none"></path>
                            <path d="M135.205479,162.76783 L165.352088,153.45" id="Stroke-103" stroke="#8FC3DC" stroke-width="2" stroke-linecap="round" stroke-linejoin="round" stroke-dasharray="1,5" fill="none"></path>
                            <path d="M155.676088,113.205895 L155.676088,116.454619 L156.268805,116.454619 C156.516971,115.123977 156.582336,114.219452 156.58012,113.119114 C156.280992,113.155829 155.979648,113.184756 155.676088,113.205895" id="Fill-105" stroke="none" fill="#ACC9D7" fill-rule="evenodd"></path>
                            <path d="M155.676088,113.205895 L155.676088,116.454619 L156.268805,116.454619 C156.516971,115.123977 156.582336,114.219452 156.58012,113.119114 C156.280992,113.155829 155.979648,113.184756 155.676088,113.205895 L155.676088,113.205895 Z" id="Stroke-107" stroke="#8FC3DC" stroke-width="1" stroke-linecap="round" stroke-linejoin="round" fill="none"></path>
                            <polygon id="Fill-109" stroke="none" fill="#FFFFFF" fill-rule="evenodd" points="159.249454 129.33058 154.3371 126.803919 153.947125 123.751008 146.985187 123.751008 146.731482 126.811707 142.080588 129.33058"></polygon>
                            <polygon id="Stroke-111" stroke="#8FC3DC" stroke-width="0.5" stroke-linecap="round" stroke-linejoin="round" fill="none" points="159.249454 129.33058 154.3371 126.803919 153.947125 123.751008 146.985187 123.751008 146.731482 126.811707 142.080588 129.33058"></polygon>
                            <path d="M150.466378,124.746764 C149.061582,124.746764 147.697778,124.391852 146.723948,123.772147 C145.628252,123.075674 145.073202,122.105507 145.073202,120.890574 L145.073202,111.410308 L150.466378,111.206706 L155.859553,111.410308 L155.859553,120.890574 C155.859553,122.105507 155.304504,123.075674 154.209915,123.772147 C153.234978,124.391852 151.871174,124.746764 150.466378,124.746764" id="Fill-113" stroke="none" fill="#FFFFFF" fill-rule="evenodd"></path>
                            <path d="M150.466378,124.746764 C149.061582,124.746764 147.697778,124.391852 146.723948,123.772147 C145.628252,123.075674 145.073202,122.105507 145.073202,120.890574 L145.073202,111.410308 L150.466378,111.206706 L155.859553,111.410308 L155.859553,120.890574 C155.859553,122.105507 155.304504,123.075674 154.209915,123.772147 C153.234978,124.391852 151.871174,124.746764 150.466378,124.746764 L150.466378,124.746764 Z" id="Stroke-115" stroke="#8FC3DC" stroke-width="0.5" stroke-linecap="round" stroke-linejoin="round" fill="none"></path>
                            <path d="M149.079862,117.359366 C149.152982,117.981297 148.659974,118.122594 148.040668,118.196024 C147.421361,118.268342 146.910627,118.244977 146.837506,117.623047 C146.765494,117.001117 147.207539,116.438153 147.826846,116.365835 C148.446153,116.292405 149.006742,116.737436 149.079862,117.359366" id="Fill-117" stroke="none" fill="#FFFFFF" fill-rule="evenodd"></path>
                            <path d="M156.593415,111.486297 C156.121457,109.930914 154.745466,108.826126 153.130172,108.704855 C152.206197,108.634763 151.27336,108.59916 150.331659,108.59916 C149.095262,108.59916 147.872159,108.660352 146.66789,108.779397 C145.171139,108.92737 144.036667,110.186807 144.036667,111.696574 C144.036667,113.216353 144.162966,114.733908 144.414455,116.232549 L144.44326,116.40166 C144.445476,116.40166 144.447692,116.400548 144.449907,116.400548 C144.451015,116.399435 144.480928,116.399435 144.480928,116.399435 L145.06589,116.399435 L145.06589,115.513824 C145.836977,114.281089 146.375408,112.887031 146.620251,111.393953 C148.922432,112.803587 151.627882,113.615768 154.522781,113.615768 C155.393577,113.615768 156.247755,113.542338 157.078668,113.401041 C156.947937,112.762422 156.805021,112.184995 156.593415,111.486297" id="Fill-125" stroke="none" fill="#8FC3DC" fill-rule="evenodd"></path>
                            <path d="M156.593415,111.486297 C156.121457,109.930914 154.745466,108.826126 153.130172,108.704855 C152.206197,108.634763 151.27336,108.59916 150.331659,108.59916 C149.095262,108.59916 147.872159,108.660352 146.66789,108.779397 C145.171139,108.92737 144.036667,110.186807 144.036667,111.696574 C144.036667,113.216353 144.162966,114.733908 144.414455,116.232549 L144.44326,116.40166 C144.445476,116.40166 144.447692,116.400548 144.449907,116.400548 C144.451015,116.399435 144.480928,116.399435 144.480928,116.399435 L145.06589,116.399435 L145.06589,115.513824 C145.836977,114.281089 146.375408,112.887031 146.620251,111.393953 C148.922432,112.803587 151.627882,113.615768 154.522781,113.615768 C155.393577,113.615768 156.247755,113.542338 157.078668,113.401041 C156.947937,112.762422 156.805021,112.184995 156.593415,111.486297 L156.593415,111.486297 Z" id="Stroke-127" stroke="#8FC3DC" stroke-width="1" stroke-linecap="round" stroke-linejoin="round" fill="none"></path>
                            <path d="M144.706604,116.457512 L144.397505,116.457512 C144.316629,116.457512 144.250156,116.524266 144.250156,116.605484 L144.250156,118.427885 C144.250156,118.722718 144.44182,118.97416 144.706604,119.063166 L145.071097,119.063166 L145.071097,116.457512 L144.706604,116.457512 Z" id="Fill-129" stroke="none" fill="#FFFFFF" fill-rule="evenodd"></path>
                            <path d="M144.706604,116.457512 L144.397505,116.457512 C144.316629,116.457512 144.250156,116.524266 144.250156,116.605484 L144.250156,118.427885 C144.250156,118.722718 144.44182,118.97416 144.706604,119.063166 L145.071097,119.063166 L145.071097,116.457512 L144.706604,116.457512 L144.706604,116.457512 Z" id="Stroke-131" stroke="#8FC3DC" stroke-width="0.5" stroke-linecap="round" stroke-linejoin="round" fill="none"></path>
                            <path d="M156.223936,116.457512 L156.533035,116.457512 C156.613911,116.457512 156.680384,116.524266 156.680384,116.605484 L156.680384,118.427885 C156.680384,118.722718 156.48872,118.97416 156.223936,119.063166 L155.859442,119.063166 L155.859442,116.457512 L156.223936,116.457512 Z" id="Fill-133" stroke="none" fill="#FFFFFF" fill-rule="evenodd"></path>
                            <path d="M156.223936,116.457512 L156.533035,116.457512 C156.613911,116.457512 156.680384,116.524266 156.680384,116.605484 L156.680384,118.427885 C156.680384,118.722718 156.48872,118.97416 156.223936,119.063166 L155.859442,119.063166 L155.859442,116.457512 L156.223936,116.457512 L156.223936,116.457512 Z" id="Stroke-135" stroke="#8FC3DC" stroke-width="0.5" stroke-linecap="round" stroke-linejoin="round" fill="none"></path>
                            <path d="M148.387799,117.386329 C148.387799,117.570333 148.23948,117.718472 148.055252,117.718472 C147.871024,117.718472 147.722705,117.570333 147.722705,117.386329 C147.722705,117.202325 147.871024,117.054187 148.055252,117.054187 C148.23948,117.054187 148.387799,117.202325 148.387799,117.386329" id="Fill-149" stroke="none" fill="#ACC9D7" fill-rule="evenodd"></path>
                            <path d="M148.387799,117.386329 C148.387799,117.570333 148.23948,117.718472 148.055252,117.718472 C147.871024,117.718472 147.722705,117.570333 147.722705,117.386329 C147.722705,117.202325 147.871024,117.054187 148.055252,117.054187 C148.23948,117.054187 148.387799,117.202325 148.387799,117.386329 L148.387799,117.386329 Z" id="Stroke-151" stroke="#8FC3DC" stroke-width="0.25" fill="none"></path>
                            <path d="M159.875408,129.400895 L155.584576,127.092298 C155.584576,127.092298 154.310511,128.651018 150.640094,128.651018 C146.969677,128.651018 145.630246,127.092298 145.630246,127.092298 L141.37819,129.400895 L159.875408,129.400895 Z" id="Fill-155" stroke="none" fill="#8FC3DC" fill-rule="evenodd"></path>
                            <path d="M159.875408,129.400895 L155.584576,127.092298 C155.584576,127.092298 154.310511,128.651018 150.640094,128.651018 C146.969677,128.651018 145.630246,127.092298 145.630246,127.092298 L141.37819,129.400895 L159.875408,129.400895 L159.875408,129.400895 Z" id="Stroke-157" stroke="#8FC3DC" stroke-width="1" stroke-linecap="round" stroke-linejoin="round" fill="none"></path>
                            <path d="M135.130505,128.672602 C137.019446,128.23536 136.589587,125.507322 137.417176,124.843113 C138.244765,124.178905 137.334085,128.000606 138.211528,127.835945 C139.088971,127.670171 139.300577,124.528254 140.212365,124.126614 C141.125261,123.724974 139.572009,128.264287 141.058788,127.76919 C142.546675,127.274094 142.974318,126.635475 143.92045,124.744094 C144.475499,123.63263 143.389774,122.79931 142.330638,124.687353 C141.011149,127.03934 144.154213,129.415804 148.377464,125.343773" id="Stroke-159" stroke="#8FC3DC" stroke-width="1" stroke-linecap="round" stroke-linejoin="round" fill="none"></path>
                            <path d="M112.027397,114.257143 L136.732084,114.257143" id="Stroke-161" stroke="#8FC3DC" stroke-width="1" fill="none"></path>
                            <path d="M112.027397,116.914286 L136.732084,116.914286" id="Stroke-163" stroke="#8FC3DC" stroke-width="1" fill="none"></path>
                            <path d="M112.027397,120.9 L132.961958,120.9" id="Stroke-165" stroke="#8FC3DC" stroke-width="1" fill="none"></path>
                            <path d="M112.068396,123.751994 L112.068396,129.401751" id="Stroke-167" stroke="#8FC3DC" stroke-width="0.5" fill="none"></path>
                            <path d="M113.398585,123.750674 L113.398585,129.400339" id="Stroke-169" stroke="#8FC3DC" stroke-width="0.5" fill="none"></path>
                            <path d="M117.830688,123.750674 L117.830688,129.400339" id="Stroke-171" stroke="#8FC3DC" stroke-width="1" fill="none"></path>
                            <path d="M118.987982,123.750674 L118.987982,129.400339" id="Stroke-173" stroke="#8FC3DC" stroke-width="0.5" fill="none"></path>
                            <path d="M121.30235,123.750674 L121.30235,129.400339" id="Stroke-175" stroke="#8FC3DC" stroke-width="0.5" fill="none"></path>
                            <path d="M122.459645,123.750674 L122.459645,129.400339" id="Stroke-177" stroke="#8FC3DC" stroke-width="1" fill="none"></path>
                            <path d="M124.195476,123.750674 L124.195476,129.400339" id="Stroke-179" stroke="#8FC3DC" stroke-width="1" fill="none"></path>
                            <path d="M124.195476,123.750674 L124.195476,129.400339" id="Stroke-181" stroke="#8FC3DC" stroke-width="0.5" fill="none"></path>
                            <path d="M125.35266,123.750674 L125.35266,129.400339" id="Stroke-183" stroke="#8FC3DC" stroke-width="0.5" fill="none"></path>
                            <path d="M125.037736,123.750674 L125.037736,129.400339" id="Stroke-185" stroke="#8FC3DC" stroke-width="0.5" fill="none"></path>
                            <path d="M126.367925,123.750674 L126.367925,129.400339" id="Stroke-187" stroke="#8FC3DC" stroke-width="0.5" fill="none"></path>
                            <path d="M129.40297,123.750674 L129.40297,129.400339" id="Stroke-189" stroke="#8FC3DC" stroke-width="0.5" fill="none"></path>
                            <path d="M129.981507,123.750674 L129.981507,129.400339" id="Stroke-191" stroke="#8FC3DC" stroke-width="1" fill="none"></path>
                            <path d="M131.717338,123.750674 L131.717338,129.400339" id="Stroke-193" stroke="#8FC3DC" stroke-width="1" fill="none"></path>
                            <path d="M132.295986,123.750674 L132.295986,129.400339" id="Stroke-195" stroke="#8FC3DC" stroke-width="0.5" fill="none"></path>
                            <path d="M133.45317,123.750674 L133.45317,129.400339" id="Stroke-197" stroke="#8FC3DC" stroke-width="1" fill="none"></path>
                            <polygon id="Fill-199" stroke="none" fill="#8FC3DC" fill-rule="evenodd" points="112.378829 112.635951 114.517788 112.635951 114.517788 104.453267 112.378829 104.453267"></polygon>
                            <path d="M118.366114,105.680891 L118.366114,111.323205 L119.72148,111.323205 C120.704432,111.323205 120.946709,110.771978 120.946709,108.575939 C120.946709,105.988278 120.690587,105.680891 119.72148,105.680891 L118.366114,105.680891 Z M116.213311,104.417356 L119.663333,104.429179 C122.087487,104.442479 123.071823,105.079419 123.071823,108.575939 C123.071823,111.899554 122.273001,112.636986 119.807315,112.636986 L116.213311,112.636986 L116.213311,104.417356 Z" id="Fill-201" stroke="none" fill="#8FC3DC" fill-rule="evenodd"></path>
                        </g>
                    </g>
                    <mask id="mask-15" fill="white">
                        <use xlink:href="#path-13"></use>
                    </mask>
                    <g id="Mask" stroke="#A5CFE3" mask="url(#mask-14)" stroke-width="4">
                        <use mask="url(#mask-16)" xlink:href="#path-13"></use>
                    </g>
                </g>
            </g>
        </g>
    </g>
</svg>