<svg xmlns="http://www.w3.org/2000/svg" viewBox="0 0 280.5 119.4" preserveAspectRatio="xMidYMid meet" width='100%' height='auto'><style>.st0{fill:none;stroke:#CCD2D6;stroke-miterlimit:10;} .st1{fill:#3B3D3F;} .st2{fill:#D5DBDD;}</style><path class="st0" d="M8.6 26h165.2M8.6 47h261.6M8.6 85.3h121.3M148.9 85.3h121.3"/><path class="st1" d="M102.7 109.4l.2-3.9h4.4v1h-3.5l-.1 2c2 .1 3.9.7 3.9 2.7 0 1.7-1.5 2.8-3.6 2.8-1 0-1.7-.2-2.3-.6v-1.1c.6.5 1.5.7 2.3.7 1.5 0 2.5-.7 2.5-1.8-.1-1.2-1.4-1.6-3.8-1.8zM112 106.5c-1 0-1.9.5-2.6 1.2v-1.1c.6-.6 1.6-1.1 2.7-1.1 1.7 0 2.7 1 2.7 2.4s-1.3 2.5-3 4l-1.2 1.1h4.6v1h-6v-1l1.9-1.7c1.5-1.3 2.5-2.2 2.5-3.3.1-.9-.5-1.5-1.6-1.5zM117.1 113.9v-1h2.3v-6l-2.4.8v-.9l2.8-1.2h.7v7.4h2.1v1h-5.5zM127.2 114c-1.9 0-3.1-1.8-3.1-4.3s1.2-4.3 3.1-4.3c1.9 0 3.1 1.8 3.1 4.3s-1.2 4.3-3.1 4.3zm0-7.6c-1.3 0-1.9 1.4-1.9 3.3s.6 3.3 1.9 3.3c1.3 0 1.9-1.4 1.9-3.3s-.6-3.3-1.9-3.3zM134.9 114c-1.8 0-3.2-1.6-3.2-3.9 0-2.7 1.5-4.7 4.1-4.7.7 0 1.3.2 1.7.4v.9c-.4-.3-1.1-.4-1.7-.4-1.9 0-2.9 1.3-3.1 3.4.4-.6 1.2-1.2 2.4-1.2 1.5 0 2.6 1 2.6 2.6 0 1.7-1.2 2.9-2.8 2.9zm1.7-2.8c0-1.1-.8-1.8-1.8-1.8s-1.6.5-2.1 1.1c.1 1.6 1 2.5 2.1 2.5 1.1.1 1.8-.6 1.8-1.8zM142.3 114c-1.8 0-3.2-1.6-3.2-3.9 0-2.7 1.5-4.7 4.1-4.7.7 0 1.3.2 1.7.4v.9c-.4-.3-1.1-.4-1.7-.4-1.9 0-2.9 1.3-3.1 3.4.4-.6 1.2-1.2 2.4-1.2 1.5 0 2.6 1 2.6 2.6.1 1.7-1.2 2.9-2.8 2.9zm1.8-2.8c0-1.1-.8-1.8-1.8-1.8s-1.6.5-2.1 1.1c.1 1.6 1 2.5 2.1 2.5 1.1.1 1.8-.6 1.8-1.8zM149.6 114c-1.9 0-3.1-1.8-3.1-4.3s1.2-4.3 3.1-4.3 3.1 1.8 3.1 4.3-1.1 4.3-3.1 4.3zm0-7.6c-1.3 0-1.9 1.4-1.9 3.3s.6 3.3 1.9 3.3 1.9-1.4 1.9-3.3-.5-3.3-1.9-3.3zM157.5 113.9v-2.2h-3.7v-.8c.5-1.6 1.8-3.9 3.2-5.4h1.4c-1.6 1.7-2.7 3.5-3.4 5.2h2.6v-2.1h1.1v2.1h2v.9h-2v2.2h-1.2zM164.3 106.5c-1 0-1.9.5-2.6 1.2v-1.1c.6-.6 1.6-1.1 2.7-1.1 1.7 0 2.7 1 2.7 2.4s-1.3 2.5-3 4l-1.2 1.1h4.6v1h-6v-1l1.9-1.7c1.5-1.3 2.5-2.2 2.5-3.3.1-.9-.5-1.5-1.6-1.5zM172.5 113.9v-2.2h-3.7v-.8c.5-1.6 1.8-3.9 3.2-5.4h1.4c-1.6 1.7-2.7 3.5-3.4 5.2h2.6v-2.1h1.1v2.1h2v.9h-2v2.2h-1.2z"/><g><path class="st1" d="M12.4 114c-1.9 0-3.1-1.8-3.1-4.3s1.2-4.3 3.1-4.3 3.1 1.8 3.1 4.3-1.2 4.3-3.1 4.3zm0-7.6c-1.3 0-1.9 1.4-1.9 3.3s.6 3.3 1.9 3.3 1.9-1.4 1.9-3.3-.6-3.3-1.9-3.3zM17.3 113.9v-1h2.3v-6l-2.4.8v-.9l2.8-1.2h.7v7.4h2.1v1h-5.5zM27.1 106.5c-1 0-1.9.5-2.6 1.2v-1.1c.6-.6 1.6-1.1 2.7-1.1 1.7 0 2.7 1 2.7 2.4s-1.3 2.5-3 4l-1.2 1.1h4.6v1h-6v-1l1.9-1.7c1.5-1.3 2.5-2.2 2.5-3.3.1-.9-.5-1.5-1.6-1.5zM31.6 112.4c.7.5 1.5.6 2.3.6 1.5 0 2.6-.7 2.6-1.8s-1.1-1.5-3-1.5v-.7l2.4-2.5H32v-1h5.1v1.1l-2.3 2.4c1.3.1 2.9.7 2.9 2.3 0 1.6-1.7 2.7-3.7 2.7-1 0-1.7-.2-2.3-.6v-1zM42.3 114c-1.9 0-3.1-1.8-3.1-4.3s1.2-4.3 3.1-4.3 3.1 1.8 3.1 4.3-1.2 4.3-3.1 4.3zm0-7.6c-1.3 0-1.9 1.4-1.9 3.3s.6 3.3 1.9 3.3 1.9-1.4 1.9-3.3-.6-3.3-1.9-3.3zM47.2 113.9v-1h2.3v-6l-2.4.8v-.9l2.8-1.2h.7v7.4h2.1v1h-5.5zM57 106.5c-1 0-1.9.5-2.6 1.2v-1.1c.6-.6 1.6-1.1 2.7-1.1 1.7 0 2.7 1 2.7 2.4s-1.3 2.5-3 4l-1.2 1.1h4.6v1h-6v-1l1.9-1.7c1.5-1.3 2.5-2.2 2.5-3.3.1-.9-.5-1.5-1.6-1.5zM61.5 112.4c.7.5 1.5.6 2.3.6 1.5 0 2.6-.7 2.6-1.8s-1.1-1.5-3-1.5v-.7l2.4-2.5H62v-1h5.1v1.1l-2.3 2.4c1.3.1 2.9.7 2.9 2.3 0 1.6-1.7 2.7-3.7 2.7-1 0-1.7-.2-2.3-.6v-1zM72.6 113.9v-2.2h-3.7v-.8c.5-1.6 1.8-3.9 3.2-5.4h1.4c-1.6 1.7-2.7 3.5-3.4 5.2h2.6v-2.1h1.1v2.1h2v.9h-2v2.2h-1.2z"/></g><g><path class="st2" d="M188.2 19.8v-1.9c-.9 0-1.8-.3-2.3-.7v-1.1c.8.6 1.9.8 2.6.8 1 0 1.7-.3 1.7-1.1 0-1.4-4-.7-4-2.9 0-1 .8-1.7 2-1.9V9.5h.9v1.7c.6 0 1.3.2 1.8.5v1c-.7-.4-1.4-.6-2.1-.6-.9 0-1.6.4-1.6 1 0 1.3 4.1.7 4.1 2.9 0 1-.9 1.8-2.2 2v2h-.9z"/></g><path class="st0" d="M197.2 11.2c0-1.1.9-2 2-2h68.6c1.1 0 2 .9 2 2v15.2c0 1.1-.9 2-2 2h-68.6c-1.1 0-2-.9-2-2V11.2zM245.9 82.2c-2-2-6-1.2-9 1.8-1.1 1.1-1.9 2.4-2.4 3.6 1.6-4.2 1.3-8.3-1.2-10.8-4-4-12-2.4-18 3.6-2.2 2.2-3.8 4.7-4.8 7.2 2.4-6.3 2-12.5-1.8-16.3-6-6-18-3.6-27 5.4-3.3 3.3-5.7 7.1-7.2 10.8"/></svg>